<svg width="130" height="128" viewBox="0 0 130 128" fill="none" xmlns="http://www.w3.org/2000/svg">
<rect y="12" width="130" height="116" rx="8" fill="white"/>
<g filter="url(#filter0_d_16959_58962)">
<path d="M53 12L77 12V78L65 70.0548L53 78L53 12Z" fill="white"/>
<mask id="mask0_16959_58962" style="mask-type:alpha" maskUnits="userSpaceOnUse" x="53" y="12" width="24" height="66">
<path d="M53 12L77 12V78L65 70.0548L53 78L53 12Z" fill="white"/>
</mask>
<g mask="url(#mask0_16959_58962)">
<rect x="53" y="12" width="8" height="66" fill="#E52E40"/>
<rect x="61" y="12" width="8" height="66" fill="#F6F8FA"/>
<rect x="69" y="12" width="8" height="66" fill="#0E6A8E"/>
</g>
<g filter="url(#filter1_ii_16959_58962)">
<path d="M65 65.8751C78.8071 65.8751 90 54.6822 90 40.8751C90 27.0679 78.8071 15.875 65 15.875C51.1929 15.875 40 27.0679 40 40.8751C40 54.6822 51.1929 65.8751 65 65.8751Z" fill="url(#paint0_linear_16959_58962)"/>
</g>
<g filter="url(#filter2_i_16959_58962)">
<path d="M57.1757 59.5061C57.0537 59.7559 56.883 59.9412 56.6634 60.0619C56.4457 60.1835 56.1942 60.237 55.9087 60.2224C55.6232 60.2077 55.3197 60.122 54.9982 59.965C54.7851 59.861 54.6014 59.7438 54.4468 59.6132C54.2923 59.4826 54.1691 59.3445 54.0771 59.1989L54.2454 58.9572C54.2924 59.0378 54.3486 59.1143 54.4138 59.187C54.4791 59.2596 54.5535 59.3259 54.637 59.3858C54.7204 59.4457 54.8116 59.4998 54.9104 59.548C55.0905 59.6359 55.2678 59.6781 55.4422 59.6745C55.6176 59.669 55.7795 59.6149 55.9279 59.5122C56.0773 59.4077 56.2016 59.2537 56.3009 59.0503C56.4162 58.814 56.469 58.5855 56.4591 58.3649C56.4513 58.1452 56.3843 57.9458 56.2582 57.7668C56.135 57.5868 55.9582 57.4405 55.7277 57.328L55.5011 57.2174L53.8987 60.5004C53.8779 60.543 53.8715 60.5855 53.8797 60.6279C53.8887 60.6682 53.9161 60.7056 53.9617 60.7398L54.1974 60.8981C54.244 60.9304 54.2718 60.9644 54.2808 60.9999C54.2908 61.0336 54.2849 61.0727 54.2632 61.1172C54.2433 61.1579 54.2127 61.1837 54.1714 61.1947C54.13 61.2057 54.0784 61.1961 54.0164 61.1659L52.4998 60.4256C52.4397 60.3963 52.4013 60.362 52.3846 60.3226C52.3678 60.2833 52.3693 60.2433 52.3892 60.2026C52.4251 60.129 52.4913 60.0989 52.5879 60.1125L52.7676 60.157C52.8236 60.1652 52.8698 60.1614 52.9063 60.1456C52.9447 60.1308 52.9743 60.102 52.9951 60.0594L54.5011 56.9739C54.5219 56.9313 54.5263 56.8903 54.5144 56.8509C54.5043 56.8124 54.4789 56.7736 54.4381 56.7345L54.2924 56.6202C54.2223 56.5525 54.2053 56.4818 54.2412 56.4082C54.262 56.3656 54.2926 56.3397 54.333 56.3307C54.3743 56.3197 54.425 56.3288 54.4851 56.3581L55.8942 57.0459C56.3184 57.2529 56.6484 57.4931 56.8843 57.7666C57.1211 58.0381 57.2632 58.3244 57.3104 58.6257C57.3605 58.9259 57.3156 59.2194 57.1757 59.5061Z" fill="#586069"/>
<path d="M60.4759 61.4034C60.4469 61.5161 60.392 61.5954 60.3112 61.6414C60.233 61.6858 60.1323 61.6921 60.0092 61.6604L58.0555 61.1575L58.1183 60.9133L59.402 61.2437C59.5085 61.2711 59.574 61.2368 59.5988 61.1408C59.6697 60.8653 59.6731 60.6447 59.6089 60.4791C59.5452 60.3114 59.4289 60.2057 59.2598 60.1622C59.1304 60.1289 59.0054 60.139 58.8848 60.1925C58.7647 60.244 58.6564 60.3363 58.5598 60.4694C58.4658 60.601 58.3922 60.7701 58.339 60.9768C58.2348 61.3817 58.2516 61.7098 58.3894 61.9612C58.5277 62.2105 58.7535 62.3754 59.0666 62.456C59.2502 62.5033 59.4214 62.5084 59.5801 62.4714C59.7387 62.4343 59.8738 62.3589 59.9855 62.2452C60.0338 62.2131 60.0713 62.1928 60.098 62.1841C60.1247 62.1754 60.1496 62.174 60.1725 62.1799C60.2059 62.1885 60.2259 62.2103 60.2325 62.2454C60.2416 62.2789 60.2395 62.3173 60.2262 62.3606C60.1727 62.5338 60.0682 62.6805 59.9126 62.8007C59.7575 62.9188 59.5693 62.9972 59.3479 63.0359C59.1271 63.0725 58.8872 63.0575 58.6284 62.9909C58.3258 62.9129 58.0734 62.7823 57.8713 62.599C57.6698 62.4136 57.531 62.192 57.4549 61.9343C57.3793 61.6745 57.3802 61.3943 57.4576 61.0937C57.5393 60.7765 57.6742 60.5119 57.8623 60.2999C58.0525 60.0885 58.2832 59.9442 58.5546 59.8672C58.8285 59.7886 59.1293 59.7915 59.457 59.8758C59.7367 59.9478 59.9626 60.0605 60.1345 60.2138C60.307 60.365 60.4213 60.5436 60.4774 60.7494C60.5361 60.9537 60.5356 61.1717 60.4759 61.4034Z" fill="#586069"/>
<path d="M64.2649 61.8003C64.256 61.9164 64.2158 62.0041 64.1443 62.0634C64.075 62.1208 63.977 62.1447 63.8502 62.135L61.8387 61.981L61.858 61.7296L63.1796 61.8307C63.2892 61.8391 63.3478 61.7939 63.3554 61.695C63.3771 61.4114 63.3419 61.1936 63.2497 61.0417C63.1578 60.8877 63.0248 60.804 62.8507 60.7907C62.7174 60.7805 62.5961 60.8123 62.4867 60.886C62.3775 60.9577 62.2869 61.0675 62.2151 61.2154C62.1455 61.3614 62.1026 61.5408 62.0864 61.7536C62.0544 62.1705 62.1283 62.4906 62.3079 62.714C62.4877 62.9353 62.7387 63.0583 63.0611 63.083C63.2502 63.0974 63.4196 63.0726 63.5694 63.0084C63.7191 62.9442 63.839 62.8464 63.9291 62.7149C63.971 62.6749 64.0044 62.6483 64.0292 62.635C64.054 62.6218 64.0782 62.6161 64.1018 62.6179C64.1362 62.6205 64.1597 62.6385 64.1723 62.6719C64.1872 62.7033 64.1918 62.7415 64.1862 62.7865C64.1638 62.9663 64.0865 63.129 63.9543 63.2745C63.8223 63.4179 63.6507 63.528 63.4394 63.6048C63.2284 63.6794 62.9896 63.7065 62.7231 63.6861C62.4115 63.6623 62.1402 63.5777 61.9092 63.4325C61.6784 63.2852 61.503 63.0913 61.3831 62.8508C61.2633 62.6082 61.2152 62.3321 61.2389 62.0227C61.2639 61.696 61.3505 61.4119 61.4987 61.1703C61.649 60.9289 61.8511 60.7466 62.1048 60.6234C62.3608 60.4981 62.6575 60.4484 62.9949 60.4742C63.2828 60.4963 63.5249 60.5678 63.721 60.6887C63.9172 60.8075 64.0609 60.9633 64.1521 61.1562C64.2456 61.3471 64.2832 61.5618 64.2649 61.8003Z" fill="#586069"/>
<path d="M66.2559 61.9112C66.2292 61.5977 66.2508 61.332 66.3209 61.114C66.393 60.8937 66.4964 60.7248 66.6313 60.6073C66.7661 60.4876 66.9161 60.4207 67.0815 60.4066C67.2876 60.389 67.4516 60.4345 67.5733 60.5431C67.6949 60.6495 67.765 60.8123 67.7837 61.0313C67.8 61.2224 67.7726 61.3697 67.7014 61.4731C67.63 61.5744 67.5309 61.6304 67.4042 61.6413C67.2754 61.6523 67.1737 61.6263 67.0991 61.5635C67.0266 61.5004 66.9852 61.4077 66.9747 61.2853L66.9646 61.1661C66.9589 61.0995 66.9386 61.0515 66.9036 61.0221C66.8706 60.9903 66.8208 60.9772 66.7542 60.9829C66.6769 60.9895 66.6055 61.027 66.54 61.0953C66.4764 61.1613 66.4285 61.2595 66.3964 61.3898C66.3642 61.5202 66.3566 61.6842 66.3735 61.8817L66.2559 61.9112ZM66.2181 60.7074L66.3347 61.4275L66.4763 63.0865C66.4814 63.1466 66.4971 63.1907 66.5233 63.2187C66.5493 63.2446 66.596 63.2601 66.6635 63.2652L66.9412 63.2869C66.9934 63.2911 67.0324 63.304 67.058 63.3256C67.0858 63.347 67.1015 63.3781 67.1049 63.4189C67.1086 63.4619 67.0954 63.4976 67.0654 63.5261C67.0374 63.5523 66.9933 63.568 66.9331 63.5731L65.4288 63.7015C65.3665 63.7068 65.3204 63.6989 65.2905 63.6776C65.2604 63.6542 65.2436 63.6222 65.2401 63.5814C65.2373 63.5491 65.2446 63.5204 65.2619 63.4951C65.2792 63.4699 65.3078 63.449 65.3475 63.4327L65.4701 63.3865C65.5076 63.3703 65.5348 63.3464 65.5515 63.3147C65.5681 63.2808 65.5736 63.2306 65.5679 63.164L65.4117 61.3343C65.407 61.2785 65.395 61.2395 65.3758 61.2174C65.3566 61.1952 65.3274 61.1826 65.2882 61.1794L65.1193 61.1776C65.0778 61.1725 65.0476 61.161 65.0287 61.1431C65.0099 61.1253 64.9992 61.1013 64.9967 61.0713C64.9935 61.0348 65.0018 61.0048 65.0214 60.9815C65.0431 60.9559 65.0809 60.93 65.1349 60.9037L65.6965 60.6416C65.8004 60.5917 65.8765 60.5581 65.9248 60.541C65.9753 60.5237 66.0144 60.5139 66.0424 60.5115C66.0896 60.5075 66.1264 60.5206 66.1528 60.5508C66.1813 60.5808 66.2031 60.633 66.2181 60.7074Z" fill="#586069"/>
<path d="M69.1385 58.557L69.9976 62.5389C70.0117 62.6042 70.0306 62.6508 70.0542 62.6788C70.0796 62.7042 70.1126 62.7191 70.1532 62.7236L70.2801 62.7293C70.3233 62.7354 70.3569 62.748 70.3809 62.7671C70.4065 62.7836 70.4229 62.8087 70.4302 62.8424C70.4388 62.8824 70.4311 62.9183 70.4071 62.9499C70.3847 62.979 70.343 63.0001 70.2819 63.0133L69.0367 63.282C68.9756 63.2952 68.9289 63.2931 68.8965 63.2758C68.8636 63.2565 68.8429 63.2268 68.8343 63.1867C68.8274 63.1551 68.831 63.1257 68.845 63.0984C68.8589 63.0712 68.8846 63.0469 68.9219 63.0256L69.0376 62.9643C69.0728 62.9434 69.0967 62.9162 69.1093 62.8827C69.1215 62.847 69.1205 62.7965 69.1064 62.7312L68.3632 59.2865C68.3514 59.2317 68.3345 59.1946 68.3127 59.175C68.2904 59.1534 68.2606 59.1433 68.2234 59.1447L68.0532 59.1682C68.0135 59.1679 67.9821 59.1604 67.959 59.1455C67.9381 59.1302 67.9242 59.1067 67.9174 59.0751C67.9101 59.0414 67.9147 59.0117 67.9313 58.9861C67.9473 58.9584 67.9815 58.9279 68.0339 58.8945L68.5722 58.5535C68.6475 58.5042 68.708 58.4679 68.7538 58.4448C68.8016 58.4213 68.8434 58.4057 68.8793 58.3979C68.9509 58.3825 69.0087 58.3898 69.0527 58.42C69.0967 58.4502 69.1253 58.4959 69.1385 58.557Z" fill="#586069"/>
<path d="M71.4541 59.6309L72.1854 61.9088C72.2058 61.9724 72.2292 62.017 72.2555 62.0425C72.2832 62.0653 72.3175 62.0769 72.3584 62.0774L72.4852 62.0706C72.5288 62.0725 72.5635 62.0817 72.5892 62.0983C72.6163 62.1123 72.6351 62.1357 72.6457 62.1685C72.6582 62.2075 72.654 62.2439 72.6332 62.2778C72.6138 62.3089 72.5743 62.334 72.5148 62.3531L71.302 62.7425C71.2425 62.7616 71.1957 62.7641 71.1618 62.7501C71.1272 62.7341 71.1037 62.7065 71.0912 62.6675C71.0813 62.6368 71.082 62.6071 71.0932 62.5786C71.1044 62.5501 71.1275 62.5234 71.1626 62.4986L71.2718 62.4262C71.3047 62.402 71.3259 62.3726 71.3351 62.338C71.3437 62.3013 71.3378 62.2511 71.3173 62.1875L70.7541 60.4329C70.7369 60.3795 70.7165 60.3442 70.6929 60.3269C70.6685 60.3076 70.6369 60.3007 70.598 60.3064L70.434 60.3455C70.3924 60.3498 70.3604 60.3454 70.338 60.3322C70.3157 60.319 70.2996 60.297 70.2897 60.2662C70.2791 60.2334 70.2808 60.2034 70.2948 60.1763C70.308 60.1471 70.3391 60.1134 70.3879 60.0751L70.8902 59.6829C70.9603 59.6265 71.017 59.5845 71.0603 59.557C71.1056 59.5289 71.1457 59.5092 71.1806 59.498C71.2503 59.4756 71.3086 59.4773 71.3553 59.503C71.4021 59.5288 71.435 59.5714 71.4541 59.6309ZM70.7339 59.1219C70.5697 59.1746 70.4238 59.1751 70.2962 59.1232C70.1701 59.0686 70.0849 58.9726 70.0408 58.8351C69.9966 58.6976 70.0106 58.572 70.0828 58.4583C70.1563 58.3419 70.2752 58.2573 70.4394 58.2046C70.6056 58.1513 70.7525 58.1505 70.8801 58.2024C71.007 58.2522 71.0925 58.3458 71.1366 58.4833C71.1808 58.6208 71.1664 58.7488 71.0935 58.8673C71.02 58.9837 70.9001 59.0686 70.7339 59.1219Z" fill="#586069"/>
<path d="M73.3858 58.9308C73.2509 58.9934 73.1613 59.0766 73.1168 59.1805C73.0734 59.2814 73.0758 59.3837 73.1239 59.4873C73.1529 59.5499 73.1934 59.6012 73.2453 59.6412C73.2991 59.6804 73.3761 59.7029 73.4762 59.7086C73.5763 59.7144 73.7118 59.6991 73.8825 59.6625C74.2146 59.5844 74.4845 59.5541 74.6923 59.5716C74.902 59.5883 75.0677 59.6432 75.1894 59.7364C75.3102 59.8276 75.406 59.9495 75.4768 60.102C75.603 60.3737 75.607 60.6356 75.4889 60.8877C75.3718 61.137 75.1294 61.3469 74.7619 61.5176C74.6329 61.5775 74.5209 61.6153 74.426 61.6309C74.3339 61.6475 74.2565 61.6573 74.1937 61.6603C74.131 61.6633 74.079 61.6744 74.038 61.6934C73.9969 61.7125 73.9687 61.7387 73.9533 61.772C73.9379 61.8053 73.9234 61.8382 73.9099 61.8705C73.8974 61.9049 73.8715 61.9312 73.8324 61.9493C73.7973 61.9657 73.7649 61.9676 73.7354 61.9552C73.7087 61.9438 73.6757 61.9163 73.6365 61.8728L73.172 61.3792C73.1158 61.3197 73.0827 61.2662 73.0725 61.2186C73.0614 61.1691 73.0732 61.1256 73.108 61.088C73.1448 61.0496 73.1839 61.0314 73.2253 61.0336C73.2678 61.0329 73.3146 61.0492 73.3657 61.0825C73.5235 61.1921 73.6727 61.2702 73.8131 61.3167C73.9546 61.3603 74.0895 61.3772 74.2181 61.3674C74.3486 61.3567 74.4725 61.3241 74.5897 61.2697C74.7579 61.1916 74.8671 61.0993 74.9174 60.9927C74.9697 60.8853 74.9695 60.7748 74.9168 60.6615C74.8851 60.5931 74.8389 60.5396 74.7783 60.5013C74.7177 60.4629 74.6286 60.4425 74.511 60.44C74.3934 60.4376 74.2342 60.4581 74.0333 60.5015C73.7538 60.5647 73.5188 60.5883 73.3283 60.5722C73.1398 60.5552 72.9837 60.5006 72.8601 60.4083C72.7375 60.3131 72.6385 60.1845 72.5631 60.0222C72.4841 59.8521 72.4591 59.6832 72.4881 59.5152C72.5161 59.3454 72.592 59.1889 72.7157 59.0459C72.8385 58.901 73.0035 58.7804 73.2107 58.6842C73.3436 58.6224 73.4556 58.5847 73.5466 58.5709C73.6396 58.5562 73.7174 58.5498 73.7801 58.5516C73.8418 58.5515 73.8951 58.5409 73.9401 58.5201C73.987 58.4983 74.0187 58.4693 74.0352 58.4331C74.0507 58.395 74.0658 58.3583 74.0803 58.3231C74.0948 58.2878 74.1206 58.2615 74.1578 58.2443C74.1871 58.2307 74.2165 58.2301 74.2461 58.2425C74.2776 58.254 74.31 58.2829 74.3434 58.3292L74.7458 58.8196C74.795 58.8846 74.8257 58.9405 74.8379 58.9871C74.8491 59.0318 74.8363 59.0734 74.7996 59.1119C74.7628 59.1503 74.7228 59.1665 74.6795 59.1605C74.6363 59.1544 74.5844 59.1322 74.5238 59.0938C74.3083 58.942 74.1034 58.8589 73.909 58.8446C73.7166 58.8294 73.5422 58.8581 73.3858 58.9308Z" fill="#586069"/>
<path d="M75.2269 58.1129L75.0791 58.158C75.0244 58.1726 74.9822 58.1767 74.9524 58.1702C74.9233 58.1607 74.9 58.1424 74.8825 58.1152C74.8592 58.079 74.8535 58.0442 74.8654 58.0109C74.8779 57.9747 74.9051 57.9431 74.9468 57.9163L75.1127 57.8097C75.1562 57.7817 75.1872 57.7502 75.2057 57.7153C75.226 57.6791 75.2376 57.6294 75.2405 57.5661L75.2657 56.9656C75.2723 56.8922 75.2858 56.8336 75.3063 56.7897C75.3285 56.7446 75.3578 56.7104 75.3941 56.6871C75.4321 56.6626 75.4702 56.6561 75.5083 56.6675C75.5452 56.677 75.5782 56.7045 75.6074 56.7498L77.1022 59.0749C77.1838 59.2018 77.2707 59.2831 77.3627 59.3187C77.4548 59.3543 77.5462 59.343 77.6368 59.2847C77.7039 59.2415 77.7468 59.1947 77.7656 59.1442C77.7862 59.0926 77.7963 59.0425 77.7959 58.9941C77.7955 58.9456 77.7971 58.9023 77.8007 58.8641C77.805 58.8229 77.8235 58.7919 77.8561 58.7709C77.8833 58.7534 77.9109 58.7485 77.9389 58.7561C77.9668 58.7637 77.9948 58.7893 78.0228 58.8328C78.0874 58.9373 78.1147 59.0556 78.1048 59.1875C78.0966 59.3183 78.0508 59.4503 77.9673 59.5834C77.8844 59.7136 77.7677 59.827 77.6172 59.9238C77.3852 60.0729 77.1657 60.1321 76.9587 60.1011C76.7506 60.0684 76.5702 59.9333 76.4175 59.6958L75.4559 58.2001C75.4256 58.153 75.3929 58.124 75.3578 58.1133C75.3245 58.1014 75.2809 58.1012 75.2269 58.1129ZM75.8151 57.7424L75.6402 57.4705L76.5431 56.89C76.5866 56.862 76.626 56.8495 76.6612 56.8525C76.6952 56.8537 76.7228 56.8706 76.7437 56.9032C76.7752 56.9522 76.7779 57.0081 76.7517 57.0711C76.7256 57.134 76.659 57.1998 76.552 57.2686L75.8151 57.7424Z" fill="#586069"/>
</g>
<g filter="url(#filter3_i_16959_58962)">
<path fill-rule="evenodd" clip-rule="evenodd" d="M90.625 40.8751C90.625 55.0274 79.1523 66.5001 65 66.5001C50.8477 66.5001 39.375 55.0274 39.375 40.8751C39.375 26.7227 50.8477 15.25 65 15.25C79.1523 15.25 90.625 26.7227 90.625 40.8751ZM90 40.8751C90 54.6822 78.8071 65.8751 65 65.8751C51.1929 65.8751 40 54.6822 40 40.8751C40 27.0679 51.1929 15.875 65 15.875C78.8071 15.875 90 27.0679 90 40.8751Z" fill="#586069"/>
</g>
<g filter="url(#filter4_i_16959_58962)">
<path fill-rule="evenodd" clip-rule="evenodd" d="M65 24.625C56.0254 24.625 48.75 31.9003 48.75 40.8748C48.75 49.8494 56.0254 57.1247 65 57.1247C73.9746 57.1247 81.25 49.8494 81.25 40.8748C81.25 31.9003 73.9746 24.625 65 24.625ZM48.125 40.8748C48.125 31.5551 55.6802 24 65 24C74.3198 24 81.875 31.5551 81.875 40.8748C81.875 50.1946 74.3198 57.7497 65 57.7497C55.6802 57.7497 48.125 50.1946 48.125 40.8748Z" fill="#586069"/>
</g>
<g filter="url(#filter5_i_16959_58962)">
<path d="M48.8123 49.3284L44.9118 51.0592L44.2231 49.5112C44.1195 49.2735 44.0707 49.0419 44.0829 48.8103C44.0951 48.5787 44.1621 48.3776 44.2901 48.1948C44.4181 48.0119 44.6009 47.8657 44.8386 47.7621L44.9118 47.7316C45.1555 47.6219 45.3871 47.5853 45.6065 47.6158C45.832 47.6463 46.0271 47.7377 46.2038 47.8779C46.3805 48.0241 46.5207 48.2131 46.6243 48.4447L47.0449 49.3893L48.5441 48.725L48.8123 49.3284ZM46.5024 49.6331L46.1063 48.7494C46.0149 48.5361 45.8808 48.3959 45.7162 48.3167C45.5456 48.2374 45.3688 48.2435 45.1738 48.3289L45.119 48.3532C44.9239 48.4386 44.796 48.5726 44.7411 48.7494C44.6863 48.9261 44.7045 49.1212 44.796 49.3284L45.186 50.2121L46.4963 49.6331H46.5024Z" fill="#586069"/>
</g>
<g filter="url(#filter6_i_16959_58962)">
<path d="M47.3321 45.7018L43.1512 46.5367L42.7977 44.7815C42.7489 44.5255 42.7428 44.2878 42.7977 44.0684C42.8464 43.8551 42.9439 43.6723 43.0902 43.5321C43.2365 43.3919 43.4254 43.2944 43.657 43.2457L43.7241 43.2335C43.9861 43.1786 44.2116 43.203 44.3945 43.2944C44.5773 43.3858 44.7175 43.5199 44.815 43.6845L44.9125 43.6662C44.8881 43.5138 44.9125 43.3797 44.9917 43.27C45.0649 43.1603 45.1928 43.0872 45.3696 43.0506L46.7531 42.7764L46.8811 43.4285L45.5829 43.6845C45.4732 43.7088 45.394 43.7515 45.3452 43.8185C45.2965 43.8856 45.2782 43.9831 45.3026 44.105L45.5585 45.3788L47.2102 45.0497L47.3381 45.6957L47.3321 45.7018ZM44.9673 45.5007L44.7601 44.4585C44.7114 44.2269 44.62 44.0623 44.4737 43.9587C44.3335 43.8551 44.1568 43.8246 43.9556 43.8612L43.9069 43.8734C43.7058 43.9161 43.5534 44.0075 43.462 44.1598C43.3706 44.3061 43.3462 44.5011 43.3949 44.7327L43.6022 45.7749L44.9673 45.5007Z" fill="#586069"/>
</g>
<g filter="url(#filter7_i_16959_58962)">
<path d="M46.7832 40.0644C46.765 40.5885 46.6065 40.9968 46.3018 41.3016C45.997 41.6002 45.5704 41.7404 45.0097 41.7221L44.0102 41.6916C43.4556 41.6733 43.0351 41.5088 42.7486 41.1858C42.4622 40.8689 42.3281 40.4483 42.3464 39.9242C42.3647 39.4001 42.5231 38.9856 42.8278 38.687C43.1326 38.3823 43.5653 38.2421 44.1199 38.2604L45.1194 38.2908C45.674 38.3091 46.0945 38.4798 46.381 38.7967C46.6674 39.1136 46.8015 39.5402 46.7832 40.0644ZM46.1921 40.0461C46.2042 39.7109 46.1128 39.4488 45.9239 39.2599C45.735 39.071 45.4668 38.9734 45.1255 38.9613L44.0772 38.9308C43.7359 38.9186 43.4617 39.0039 43.2606 39.1807C43.0594 39.3574 42.9497 39.6134 42.9375 39.9486C42.9254 40.2777 43.0168 40.5398 43.2057 40.7348C43.3946 40.9298 43.6628 41.0273 44.0041 41.0395L45.0524 41.07C45.3937 41.0822 45.6679 40.9968 45.869 40.814C46.0702 40.6312 46.1799 40.3813 46.186 40.0522L46.1921 40.0461Z" fill="#586069"/>
</g>
<g filter="url(#filter8_i_16959_58962)">
<path d="M47.3136 36.2122C47.2039 36.6266 47.0028 36.9252 46.7103 37.1081C46.4177 37.2909 46.0581 37.3275 45.6376 37.2178L45.2841 37.1263L45.4548 36.4925L45.8083 36.5839C46.0277 36.6388 46.2166 36.6266 46.3812 36.5413C46.5457 36.4559 46.6554 36.2975 46.7164 36.072C46.7712 35.8526 46.7529 35.6697 46.6493 35.5296C46.5457 35.3894 46.3873 35.2919 46.1618 35.2309L43.8519 34.6215L43.663 35.3406L43.084 35.1883L43.5594 33.3721L44.1383 33.5244L44.0165 33.9815L46.3263 34.591C46.7529 34.7007 47.0516 34.9018 47.2222 35.1822C47.3929 35.4625 47.4233 35.8038 47.3136 36.2122Z" fill="#586069"/>
</g>
<g filter="url(#filter9_i_16959_58962)">
<path d="M48.0572 33.5669L44.248 31.6532L45.4548 29.252L45.9911 29.5201L45.0769 31.3363L46.1739 31.8848L47.0089 30.221L47.5452 30.4892L46.7103 32.153L47.8256 32.7137L48.7519 30.8731L49.2883 31.1413L48.0694 33.5669H48.0572Z" fill="#586069"/>
</g>
<g filter="url(#filter10_i_16959_58962)">
<path d="M50.8489 29.1612C50.5198 29.5635 50.148 29.7951 49.7275 29.8438C49.307 29.8926 48.8804 29.7463 48.4476 29.3989L47.6675 28.7712C47.2348 28.4238 46.9971 28.0337 46.9606 27.6132C46.924 27.1927 47.0703 26.7782 47.3933 26.3699C47.7163 25.9738 48.0759 25.7544 48.472 25.7178C48.8682 25.6812 49.2582 25.8153 49.6422 26.1261L49.6727 26.1505L49.2643 26.6564L49.2217 26.6198C48.9962 26.4369 48.7646 26.3516 48.5269 26.3577C48.2892 26.3638 48.0637 26.4918 47.8626 26.7417C47.6614 26.9977 47.5761 27.2536 47.6127 27.5218C47.6493 27.7899 47.8077 28.0276 48.0759 28.2531L48.8743 28.8992C49.1424 29.1186 49.4106 29.2161 49.6849 29.1978C49.9591 29.1795 50.1907 29.0454 50.3979 28.7895C50.599 28.5396 50.6783 28.2958 50.6295 28.0581C50.5869 27.8204 50.4528 27.6132 50.2273 27.4304L50.148 27.3633L50.5564 26.8575L50.6234 26.9123C51.0074 27.2232 51.2207 27.5705 51.2633 27.9667C51.306 28.3628 51.1719 28.759 50.8489 29.1551V29.1612Z" fill="#586069"/>
</g>
<g filter="url(#filter11_i_16959_58962)">
<path d="M53.2434 26.6135L50.9396 23.7551L49.9218 24.5779L49.5439 24.1147L52.0976 22.0547L52.4754 22.5179L51.4576 23.3406L53.7614 26.199L53.2495 26.6135H53.2434Z" fill="#586069"/>
</g>
<g filter="url(#filter12_i_16959_58962)">
<path d="M58.5633 23.6083C58.0757 23.7911 57.6308 23.8033 57.2407 23.6326C56.8507 23.4681 56.552 23.1207 56.357 22.6027L56.0035 21.6641C55.8085 21.146 55.8024 20.6889 55.9852 20.305C56.1681 19.921 56.5094 19.6346 56.9969 19.4517C57.4845 19.2689 57.9294 19.2567 58.3256 19.4274C58.7217 19.5919 59.0143 19.9393 59.2093 20.4574L59.5628 21.3959C59.7578 21.914 59.7639 22.3711 59.575 22.755C59.386 23.139 59.0508 23.4254 58.5572 23.6083H58.5633ZM58.356 23.0537C58.673 22.9379 58.8802 22.7489 58.9838 22.5051C59.0874 22.2614 59.0752 21.9749 58.9594 21.6519L58.5876 20.6707C58.4657 20.3537 58.289 20.1343 58.0452 20.0124C57.8014 19.8906 57.5272 19.8906 57.2103 20.0124C56.8994 20.1282 56.6983 20.3111 56.5886 20.561C56.485 20.8108 56.4911 21.0973 56.613 21.4142L56.9787 22.3954C57.1006 22.7124 57.2834 22.9318 57.5272 23.0537C57.771 23.1695 58.0452 23.1755 58.356 23.0537Z" fill="#586069"/>
</g>
<g filter="url(#filter13_i_16959_58962)">
<path d="M61.1602 22.7186L60.5508 18.4951L63.1593 18.1172L63.2446 18.7084L61.2882 18.9887L61.465 20.2076L63.2629 19.9517L63.3482 20.5428L61.5503 20.7988L61.8124 22.6211L61.1602 22.7125V22.7186Z" fill="#586069"/>
</g>
<g filter="url(#filter14_i_16959_58962)">
<path d="M67.4259 22.5238L67.9805 18.8975L66.6885 18.7025L66.7799 18.1113L70.0222 18.605L69.9308 19.1962L68.6387 18.995L68.0841 22.6213L67.432 22.5238H67.4259Z" fill="#586069"/>
</g>
<g filter="url(#filter15_i_16959_58962)">
<path d="M70.1992 23.0479L71.7594 19.0742L72.3689 19.3119L71.6985 21.0123L73.3684 21.6644L74.0388 19.964L74.6483 20.2017L73.0881 24.1754L72.4786 23.9377L73.149 22.2251L71.4791 21.573L70.8087 23.2856L70.1992 23.0479Z" fill="#586069"/>
</g>
<g filter="url(#filter16_i_16959_58962)">
<path d="M74.0874 24.7482L76.4643 21.2012L78.6949 22.7004L78.3597 23.1941L76.6715 22.0666L75.9889 23.0844L77.5308 24.1205L77.1956 24.6142L75.6537 23.5781L74.9589 24.6142L76.6715 25.7599L76.3363 26.2536L74.0752 24.7421L74.0874 24.7482Z" fill="#586069"/>
</g>
<g filter="url(#filter17_i_16959_58962)">
<path d="M78.4817 28.1309L81.9373 25.626L82.6626 26.6255L80.1089 29.624L80.1638 29.7033L83.8083 28.2101L84.5336 29.2096L81.078 31.7145L80.7001 31.1964L83.7779 28.9658L83.723 28.8866L80.1028 30.3676L79.4507 29.4717L81.9861 26.4914L81.9312 26.4122L78.8534 28.6428L78.4756 28.1248L78.4817 28.1309Z" fill="#586069"/>
</g>
<g filter="url(#filter18_i_16959_58962)">
<path d="M82.0167 34.2683C81.8339 33.7746 81.8278 33.3358 81.9924 32.9457C82.163 32.5557 82.5043 32.257 83.0284 32.062L83.967 31.7146C84.4911 31.5196 84.9421 31.5135 85.3261 31.7024C85.7101 31.8914 85.9965 32.2266 86.1793 32.7202C86.3622 33.2139 86.3744 33.6527 86.2037 34.0488C86.0392 34.445 85.6918 34.7375 85.1737 34.9326L84.2352 35.28C83.711 35.475 83.26 35.4811 82.8761 35.2921C82.4921 35.1032 82.2057 34.7619 82.0228 34.2743L82.0167 34.2683ZM82.5713 34.061C82.6871 34.378 82.8761 34.5852 83.1199 34.6888C83.3697 34.7924 83.6501 34.7802 83.9731 34.6644L84.9543 34.2987C85.2712 34.1768 85.4906 34.0001 85.6125 33.7563C85.7344 33.5186 85.7344 33.2383 85.6125 32.9213C85.4967 32.6105 85.3139 32.4033 85.064 32.2997C84.8142 32.1961 84.5277 32.2022 84.2108 32.318L83.2296 32.6837C82.9126 32.8055 82.6932 32.9884 82.5713 33.2322C82.4494 33.476 82.4494 33.7502 82.5713 34.061Z" fill="#586069"/>
</g>
<g filter="url(#filter19_i_16959_58962)">
<path d="M82.9299 36.8401L87.1657 36.3281L87.318 37.5836L83.6552 39.1926L83.6674 39.2901L87.4643 38.8269L87.5435 39.4729L83.3078 39.9849L83.1554 38.7294L86.8183 37.1204L86.8061 37.0229L83.0031 37.4861L82.9238 36.8401H82.9299Z" fill="#586069"/>
</g>
<g filter="url(#filter20_i_16959_58962)">
<path d="M83.1986 42.1419L86.8493 42.5015L86.9773 41.1973L87.5746 41.2582L87.2515 44.5188L86.6604 44.4579L86.7884 43.1536L83.1377 42.7941L83.2047 42.1419H83.1986Z" fill="#586069"/>
</g>
<g filter="url(#filter21_i_16959_58962)">
<path d="M82.814 44.9277L86.8608 46.2685L86.6536 46.8963L84.9166 46.3234L84.3559 48.0238L86.0929 48.5967L85.8857 49.2244L81.8389 47.8836L82.0461 47.2559L83.7952 47.8349L84.3559 46.1345L82.6068 45.5555L82.814 44.9338V44.9277Z" fill="#586069"/>
</g>
<g filter="url(#filter22_i_16959_58962)">
<path d="M55.5603 47.8443V44.0244H53.3203V42.0644H55.5603V39.6244H53.3203V37.6644H55.5603V33.8445H57.6403V37.6644H60.0403V33.8445H62.1203V37.6644H64.3603V39.6244H62.1203V42.0644H64.3603V44.0244H62.1203V47.8443H60.0403V44.0244H57.6403V47.8443H55.5603ZM57.6403 42.0644H60.0403V39.6244H57.6403V42.0644Z" fill="#6A737D"/>
<path d="M66.0761 47.8443V46.2243C66.0761 45.2377 66.2361 44.431 66.5561 43.8044C66.8894 43.1644 67.3628 42.6444 67.9761 42.2444C68.5894 41.831 69.3361 41.491 70.2161 41.2244L71.4961 40.8244C72.0161 40.6511 72.4561 40.4444 72.8161 40.2044C73.1761 39.9644 73.4561 39.6711 73.6561 39.3244C73.8561 38.9644 73.9561 38.5444 73.9561 38.0644V37.9844C73.9561 37.2644 73.7094 36.6978 73.2161 36.2844C72.7228 35.8578 72.0628 35.6444 71.2361 35.6444C70.4094 35.6444 69.7361 35.8711 69.2161 36.3244C68.6961 36.7644 68.4361 37.4178 68.4361 38.2844V38.6244H66.1161V38.3244C66.1161 37.3111 66.3428 36.4511 66.7961 35.7444C67.2494 35.0378 67.8628 34.4978 68.6361 34.1244C69.4094 33.7511 70.2761 33.5645 71.2361 33.5645C72.1961 33.5645 73.0561 33.7511 73.8161 34.1244C74.5894 34.4844 75.1894 34.9911 75.6161 35.6444C76.0561 36.2978 76.2761 37.0644 76.2761 37.9444V38.1444C76.2761 39.0377 76.0961 39.7911 75.7361 40.4044C75.3761 41.0177 74.8761 41.5244 74.2361 41.9244C73.6094 42.311 72.8961 42.631 72.0961 42.8844L70.8561 43.2644C70.2561 43.451 69.7761 43.651 69.4161 43.8644C69.0694 44.0777 68.8228 44.3244 68.6761 44.6044C68.5294 44.871 68.4561 45.211 68.4561 45.6243V45.7643H76.1561V47.8443H66.0761Z" fill="#6A737D"/>
</g>
<g filter="url(#filter23_i_16959_58962)">
<path d="M50.7413 52.1487L49.802 53.1685C49.4825 53.5154 49.4197 54.0273 49.6457 54.4411L50.3104 55.6579L49.2906 54.7186C48.9437 54.3991 48.4319 54.3363 48.018 54.5623L46.8012 55.227L47.7406 54.2072C48.06 53.8603 48.1229 53.3484 47.8968 52.9346L47.2321 51.7179L48.252 52.6572C48.5988 52.9766 49.1107 53.0395 49.5245 52.8134L50.7413 52.1487Z" fill="#586069"/>
</g>
<g filter="url(#filter24_i_16959_58962)">
<path d="M80.253 51.2741L81.4698 51.9388C81.8836 52.1649 82.3955 52.102 82.7424 51.7826L83.7622 50.8433L83.0975 52.06C82.8714 52.4739 82.9343 52.9857 83.2538 53.3326L84.1931 54.3524L82.9763 53.6877C82.5625 53.4617 82.0506 53.5245 81.7037 53.844L80.6839 54.7833L81.3486 53.5665C81.5747 53.1527 81.5118 52.6408 81.1923 52.294L80.253 51.2741Z" fill="#586069"/>
</g>
<g opacity="0.3" filter="url(#filter25_f_16959_58962)">
<path d="M81.6913 41.089C81.6243 50.1481 74.1055 57.4503 64.8809 57.3821C55.6563 57.3138 48.2463 49.9012 48.3133 40.8421C48.3803 31.783 55.8991 24.4808 65.1237 24.549C74.3484 24.6172 81.7583 32.0299 81.6913 41.089Z" stroke="white"/>
</g>
</g>
<path d="M17.9802 94.7381C17.9802 95.4259 17.8029 96.0212 17.4484 96.5238C17.0992 97.0265 16.6019 97.4153 15.9564 97.6905C15.3162 97.9656 14.5595 98.1032 13.6865 98.1032C13.1045 98.1032 12.5728 98.0423 12.0913 97.9206C11.6098 97.7989 11.1892 97.627 10.8294 97.4048L10.9405 96.6984C11.131 96.8307 11.3373 96.9418 11.5595 97.0317C11.7818 97.1164 12.0172 97.1825 12.2659 97.2302C12.5146 97.2725 12.7738 97.2936 13.0437 97.2936C13.5304 97.2936 13.9643 97.1931 14.3453 96.9921C14.7262 96.791 15.0251 96.4947 15.2421 96.1032C15.459 95.7116 15.5675 95.2354 15.5675 94.6746C15.5675 94.0238 15.4378 93.4603 15.1786 92.9841C14.9246 92.5079 14.5648 92.1376 14.0992 91.873C13.6336 91.6085 13.086 91.4762 12.4564 91.4762H11.8294V100.476C11.8294 100.593 11.8611 100.693 11.9246 100.778C11.9881 100.857 12.0886 100.907 12.2262 100.929L12.9167 101.024C13.049 101.05 13.1442 101.095 13.2024 101.159C13.2606 101.222 13.2897 101.315 13.2897 101.437C13.2897 101.548 13.25 101.638 13.1706 101.706C13.0966 101.77 12.9775 101.802 12.8135 101.802H8.67065C8.50663 101.802 8.38494 101.77 8.30557 101.706C8.22621 101.638 8.18652 101.548 8.18652 101.437C8.18652 101.235 8.29763 101.101 8.51986 101.032L8.98017 100.929C9.10716 100.892 9.2024 100.836 9.26589 100.762C9.33467 100.688 9.36906 100.593 9.36906 100.476V92.0159C9.36906 91.8995 9.33467 91.8042 9.26589 91.7302C9.2024 91.6561 9.10716 91.6005 8.98017 91.5635L8.51986 91.4603C8.29763 91.3915 8.18652 91.2566 8.18652 91.0556C8.18652 90.9392 8.22621 90.8492 8.30557 90.7857C8.38494 90.7222 8.50663 90.6905 8.67065 90.6905H12.5199C13.6733 90.6905 14.6574 90.8651 15.4722 91.2143C16.287 91.5582 16.9087 92.037 17.3373 92.6508C17.7659 93.2593 17.9802 93.955 17.9802 94.7381Z" fill="#0D0D0D"/>
<path d="M25.6441 97.1111C25.6441 97.3915 25.5647 97.6085 25.406 97.7619C25.2473 97.91 25.0145 97.9841 24.7076 97.9841H19.7552V97.3809H23.0012C23.2711 97.3809 23.406 97.2593 23.406 97.0159C23.406 96.3175 23.279 95.7884 23.0251 95.4286C22.7711 95.0635 22.4298 94.881 22.0012 94.881C21.6732 94.881 21.3822 94.9815 21.1282 95.1825C20.8743 95.3836 20.6759 95.672 20.533 96.0476C20.3901 96.418 20.3187 96.8677 20.3187 97.3968C20.3187 98.418 20.5568 99.1852 21.033 99.6984C21.5145 100.212 22.1547 100.468 22.9536 100.468C23.4192 100.468 23.8266 100.376 24.1759 100.19C24.5303 100.005 24.8055 99.7407 25.0012 99.3968C25.0965 99.291 25.1706 99.2196 25.2235 99.1825C25.2817 99.1455 25.3399 99.127 25.3981 99.127C25.4827 99.127 25.5436 99.1667 25.5806 99.246C25.6176 99.3201 25.6362 99.41 25.6362 99.5159C25.615 99.9603 25.4563 100.373 25.16 100.754C24.8637 101.13 24.4642 101.431 23.9616 101.659C23.4589 101.886 22.8822 102 22.2314 102C21.4642 102 20.7843 101.844 20.1917 101.532C19.5991 101.214 19.1335 100.772 18.7949 100.206C18.4616 99.6349 18.2949 98.9683 18.2949 98.2063C18.2949 97.4074 18.4536 96.6984 18.7711 96.0794C19.0938 95.4603 19.5542 94.9762 20.152 94.627C20.7499 94.2778 21.4642 94.1032 22.2949 94.1032C23.0039 94.1032 23.6071 94.2328 24.1044 94.4921C24.6071 94.746 24.988 95.1005 25.2473 95.5556C25.5118 96.0053 25.6441 96.5238 25.6441 97.1111Z" fill="#0D0D0D"/>
<path d="M33.7902 97.1111C33.7902 97.3915 33.7108 97.6085 33.5521 97.7619C33.3934 97.91 33.1606 97.9841 32.8537 97.9841H27.9013V97.3809H31.1473C31.4172 97.3809 31.5521 97.2593 31.5521 97.0159C31.5521 96.3175 31.4251 95.7884 31.1711 95.4286C30.9172 95.0635 30.5759 94.881 30.1473 94.881C29.8193 94.881 29.5283 94.9815 29.2743 95.1825C29.0203 95.3836 28.8219 95.672 28.6791 96.0476C28.5362 96.418 28.4648 96.8677 28.4648 97.3968C28.4648 98.418 28.7029 99.1852 29.1791 99.6984C29.6606 100.212 30.3008 100.468 31.0997 100.468C31.5653 100.468 31.9727 100.376 32.3219 100.19C32.6764 100.005 32.9516 99.7407 33.1473 99.3968C33.2426 99.291 33.3166 99.2196 33.3695 99.1825C33.4277 99.1455 33.486 99.127 33.5442 99.127C33.6288 99.127 33.6897 99.1667 33.7267 99.246C33.7637 99.3201 33.7822 99.41 33.7822 99.5159C33.7611 99.9603 33.6024 100.373 33.3061 100.754C33.0098 101.13 32.6103 101.431 32.1076 101.659C31.605 101.886 31.0283 102 30.3775 102C29.6103 102 28.9304 101.844 28.3378 101.532C27.7452 101.214 27.2796 100.772 26.941 100.206C26.6076 99.6349 26.441 98.9683 26.441 98.2063C26.441 97.4074 26.5997 96.6984 26.9172 96.0794C27.2399 95.4603 27.7002 94.9762 28.2981 94.627C28.896 94.2778 29.6103 94.1032 30.441 94.1032C31.15 94.1032 31.7531 94.2328 32.2505 94.4921C32.7531 94.746 33.1341 95.1005 33.3934 95.5556C33.6579 96.0053 33.7902 96.5238 33.7902 97.1111Z" fill="#0D0D0D"/>
<path d="M37.4918 97.5952C37.4918 96.828 37.6003 96.1852 37.8172 95.6667C38.0341 95.1481 38.3199 94.7593 38.6744 94.5C39.0289 94.2354 39.4098 94.1032 39.8172 94.1032C40.3199 94.1032 40.7087 94.246 40.9839 94.5317C41.259 94.8175 41.3966 95.2275 41.3966 95.7619C41.3966 96.2381 41.2987 96.5926 41.1029 96.8254C40.9072 97.0582 40.6532 97.1746 40.341 97.1746C40.0236 97.1746 39.7828 97.0899 39.6188 96.9206C39.4548 96.7513 39.3728 96.5159 39.3728 96.2143V95.9286C39.3675 95.7593 39.3278 95.6349 39.2537 95.5556C39.1796 95.4709 39.058 95.4286 38.8886 95.4286C38.7035 95.4286 38.5236 95.5053 38.349 95.6587C38.1796 95.8122 38.0394 96.045 37.9283 96.3571C37.8225 96.6693 37.7696 97.0688 37.7696 97.5556L37.4918 97.5952ZM37.6426 94.6508L37.7696 96.4524V100.524C37.7696 100.677 37.7987 100.791 37.8569 100.865C37.9204 100.934 38.0315 100.981 38.1902 101.008L38.8728 101.111C38.9945 101.132 39.0844 101.172 39.1426 101.23C39.2061 101.288 39.2378 101.368 39.2378 101.468C39.2378 101.574 39.1982 101.656 39.1188 101.714C39.0447 101.772 38.9363 101.802 38.7934 101.802H35.0871C34.9389 101.802 34.8304 101.772 34.7617 101.714C34.6929 101.656 34.6585 101.577 34.6585 101.476C34.6585 101.397 34.6823 101.331 34.7299 101.278C34.7775 101.22 34.8516 101.172 34.9521 101.135L35.2617 101.056C35.3569 101.024 35.4257 100.971 35.468 100.897C35.5156 100.817 35.5394 100.696 35.5394 100.532V96C35.5394 95.8624 35.5183 95.7645 35.4759 95.7063C35.4389 95.6481 35.3754 95.6111 35.2855 95.5952L34.8648 95.5635C34.7696 95.5423 34.7008 95.5079 34.6585 95.4603C34.6162 95.4127 34.595 95.3518 34.595 95.2778C34.595 95.1878 34.6214 95.1164 34.6744 95.0635C34.7273 95.0106 34.8225 94.9577 34.9601 94.9048L36.4045 94.381C36.6638 94.2804 36.8542 94.2169 36.9759 94.1905C37.0976 94.1587 37.1929 94.1429 37.2617 94.1429C37.3781 94.1429 37.4654 94.1825 37.5236 94.2619C37.5818 94.336 37.6214 94.4656 37.6426 94.6508Z" fill="#0D0D0D"/>
<path d="M45.0556 90.5079V100.532C45.0556 100.696 45.0767 100.817 45.119 100.897C45.1667 100.971 45.2381 101.024 45.3333 101.056L45.6349 101.135C45.7354 101.167 45.8095 101.212 45.8571 101.27C45.9048 101.323 45.9286 101.392 45.9286 101.476C45.9286 101.577 45.8942 101.656 45.8254 101.714C45.7566 101.772 45.6455 101.802 45.4921 101.802H42.3651C42.2169 101.802 42.1085 101.772 42.0397 101.714C41.9709 101.656 41.9365 101.577 41.9365 101.476C41.9365 101.397 41.9603 101.331 42.0079 101.278C42.0556 101.22 42.1296 101.172 42.2302 101.135L42.5397 101.056C42.6349 101.019 42.7037 100.963 42.746 100.889C42.7937 100.815 42.8175 100.696 42.8175 100.532V91.8413C42.8175 91.709 42.7963 91.6138 42.754 91.5556C42.7169 91.4974 42.6534 91.4603 42.5635 91.4444L42.1429 91.4127C42.0476 91.3862 41.9788 91.3492 41.9365 91.3016C41.8942 91.254 41.873 91.1931 41.873 91.119C41.873 91.0344 41.8995 90.9656 41.9524 90.9127C42.0053 90.8598 42.1005 90.8069 42.2381 90.754L43.7143 90.2143C43.9259 90.1349 44.0926 90.0794 44.2143 90.0476C44.336 90.0159 44.4418 90 44.5317 90C44.7063 90 44.836 90.0476 44.9206 90.1429C45.0106 90.2328 45.0556 90.3545 45.0556 90.5079Z" fill="#0D0D0D"/>
<path d="M49.8069 94.6429V100.532C49.8069 100.696 49.8281 100.817 49.8704 100.897C49.918 100.971 49.9895 101.024 50.0847 101.056L50.3863 101.135C50.4868 101.167 50.5609 101.212 50.6085 101.27C50.6561 101.323 50.6799 101.392 50.6799 101.476C50.6799 101.577 50.6455 101.656 50.5768 101.714C50.508 101.772 50.3969 101.802 50.2434 101.802H47.1164C46.9683 101.802 46.8598 101.772 46.791 101.714C46.7223 101.656 46.6879 101.577 46.6879 101.476C46.6879 101.397 46.7117 101.331 46.7593 101.278C46.8069 101.22 46.881 101.172 46.9815 101.135L47.291 101.056C47.3863 101.019 47.4551 100.963 47.4974 100.889C47.545 100.815 47.5688 100.696 47.5688 100.532V95.9841C47.5688 95.8466 47.5477 95.7487 47.5053 95.6905C47.4683 95.6323 47.4048 95.5952 47.3149 95.5794L46.8942 95.5476C46.799 95.5265 46.7302 95.4921 46.6879 95.4444C46.6455 95.3968 46.6244 95.336 46.6244 95.2619C46.6244 95.172 46.6482 95.1005 46.6958 95.0476C46.7487 94.9947 46.8466 94.9418 46.9895 94.8889L48.4656 94.3492C48.672 94.2751 48.836 94.2222 48.9577 94.1905C49.0847 94.1587 49.1905 94.1429 49.2752 94.1429C49.4551 94.1429 49.5873 94.1905 49.672 94.2857C49.7619 94.3757 49.8069 94.4947 49.8069 94.6429ZM48.5133 92.9286C48.09 92.9286 47.7487 92.8201 47.4895 92.6032C47.2355 92.381 47.1085 92.0926 47.1085 91.7381C47.1085 91.3836 47.2355 91.1005 47.4895 90.8889C47.7487 90.672 48.09 90.5635 48.5133 90.5635C48.9418 90.5635 49.2831 90.672 49.5371 90.8889C49.7963 91.1005 49.926 91.3836 49.926 91.7381C49.926 92.0926 49.7963 92.381 49.5371 92.6032C49.2831 92.8201 48.9418 92.9286 48.5133 92.9286Z" fill="#0D0D0D"/>
<path d="M54.5114 94.8175C54.1463 94.8175 53.8606 94.9101 53.6543 95.0952C53.4532 95.2751 53.3527 95.5053 53.3527 95.7857C53.3527 95.9603 53.3897 96.119 53.4638 96.2619C53.5432 96.3995 53.6913 96.5265 53.9082 96.6429C54.1252 96.7593 54.4426 96.8677 54.8606 96.9683C55.6754 97.1376 56.3051 97.3492 56.7495 97.6032C57.1939 97.8571 57.5035 98.1508 57.6781 98.4841C57.8527 98.8122 57.94 99.1799 57.94 99.5873C57.94 100.323 57.6807 100.91 57.1622 101.349C56.6437 101.783 55.8897 102 54.9003 102C54.5511 102 54.2654 101.968 54.0432 101.905C53.8209 101.847 53.6384 101.788 53.4955 101.73C53.3527 101.667 53.2257 101.635 53.1146 101.635C53.0035 101.635 52.9109 101.667 52.8368 101.73C52.768 101.788 52.7019 101.847 52.6384 101.905C52.5749 101.968 52.4902 102 52.3844 102C52.2892 102 52.2178 101.974 52.1701 101.921C52.1225 101.868 52.0775 101.77 52.0352 101.627L51.5114 100.032C51.4532 99.8466 51.4347 99.6958 51.4558 99.5794C51.4823 99.463 51.5537 99.3809 51.6701 99.3333C51.7918 99.291 51.8976 99.2936 51.9876 99.3413C52.0775 99.3836 52.1622 99.4656 52.2416 99.5873C52.4797 100 52.7336 100.331 53.0035 100.579C53.2733 100.823 53.5564 101 53.8527 101.111C54.1543 101.222 54.4611 101.278 54.7733 101.278C55.2283 101.278 55.567 101.185 55.7892 101C56.0167 100.815 56.1305 100.569 56.1305 100.262C56.1305 100.077 56.0828 99.91 55.9876 99.7619C55.8924 99.6085 55.7151 99.4709 55.4558 99.3492C55.1966 99.2222 54.8209 99.1032 54.3289 98.9921C53.6463 98.8439 53.1014 98.6534 52.6939 98.4206C52.2918 98.1825 52.0008 97.8968 51.8209 97.5635C51.6463 97.2302 51.559 96.8439 51.559 96.4048C51.559 95.9444 51.6781 95.5423 51.9162 95.1984C52.1543 94.8545 52.4849 94.5873 52.9082 94.3968C53.3315 94.2011 53.8209 94.1032 54.3765 94.1032C54.7363 94.1032 55.0246 94.1349 55.2416 94.1984C55.4585 94.2619 55.6357 94.328 55.7733 94.3968C55.9162 94.4603 56.0458 94.4921 56.1622 94.4921C56.2892 94.4921 56.3897 94.4603 56.4638 94.3968C56.5379 94.328 56.6093 94.2619 56.6781 94.1984C56.7468 94.1349 56.8315 94.1032 56.932 94.1032C57.0114 94.1032 57.0775 94.1323 57.1305 94.1905C57.1887 94.2434 57.231 94.3386 57.2574 94.4762L57.6463 95.9921C57.6834 96.1878 57.6913 96.3413 57.6701 96.4524C57.6543 96.5635 57.5855 96.6429 57.4638 96.6905C57.3474 96.7381 57.2442 96.7328 57.1543 96.6746C57.0643 96.6164 56.9744 96.5132 56.8844 96.3651C56.5564 95.8042 56.1834 95.4074 55.7654 95.1746C55.3527 94.9365 54.9347 94.8175 54.5114 94.8175Z" fill="#0D0D0D"/>
<path d="M59.2143 95.0635L58.8492 94.9524C58.7222 94.9101 58.6323 94.8624 58.5794 94.8095C58.5264 94.7513 58.5 94.6852 58.5 94.6111C58.5 94.5053 58.5344 94.4259 58.6032 94.373C58.6772 94.3148 58.7751 94.2857 58.8968 94.2857H59.3809C59.5079 94.2857 59.6137 94.2619 59.6984 94.2143C59.7831 94.1667 59.8704 94.082 59.9603 93.9603L60.8254 92.746C60.9365 92.6085 61.0423 92.5079 61.1428 92.4444C61.2434 92.381 61.3439 92.3492 61.4444 92.3492C61.5555 92.3492 61.6428 92.3836 61.7063 92.4524C61.7698 92.5212 61.8016 92.6217 61.8016 92.754V99.5397C61.8016 99.91 61.873 100.193 62.0159 100.389C62.164 100.585 62.3677 100.683 62.627 100.683C62.8227 100.683 62.9735 100.645 63.0793 100.571C63.1905 100.492 63.2778 100.402 63.3413 100.302C63.4047 100.201 63.4656 100.114 63.5238 100.04C63.5873 99.9603 63.6667 99.918 63.7619 99.9127C63.8413 99.9127 63.9021 99.9391 63.9444 99.9921C63.9921 100.045 64.0159 100.132 64.0159 100.254C64.0106 100.556 63.91 100.836 63.7143 101.095C63.5238 101.354 63.2566 101.566 62.9127 101.73C62.5688 101.889 62.1772 101.968 61.7381 101.968C61.0608 101.968 60.5291 101.799 60.1428 101.46C59.7619 101.116 59.5714 100.601 59.5714 99.9127V95.5317C59.5714 95.3942 59.5423 95.2936 59.4841 95.2302C59.4312 95.1614 59.3413 95.1058 59.2143 95.0635ZM60.9206 95.0714V94.2857H63.5476C63.6693 94.2857 63.7645 94.3122 63.8333 94.3651C63.9074 94.4127 63.9444 94.4841 63.9444 94.5794C63.9444 94.7169 63.8756 94.8333 63.7381 94.9286C63.6005 95.0238 63.3783 95.0714 63.0714 95.0714H60.9206Z" fill="#0D0D0D"/>
<line x1="68.877" y1="90.1875" x2="68.877" y2="101.812" stroke="#0D0D0D" stroke-width="0.375" stroke-linecap="round"/>
<path d="M77.9877 95.7955L77.0842 96.0511C77.0274 95.9006 76.9436 95.7543 76.8328 95.6122C76.7249 95.4673 76.5771 95.348 76.3896 95.2543C76.2021 95.1605 75.9621 95.1136 75.6695 95.1136C75.2689 95.1136 74.9351 95.206 74.6681 95.3906C74.4039 95.5724 74.2718 95.804 74.2718 96.0852C74.2718 96.3352 74.3627 96.5327 74.5445 96.6776C74.7263 96.8224 75.0104 96.9432 75.3968 97.0398L76.3683 97.2784C76.9536 97.4205 77.3896 97.6378 77.6766 97.9304C77.9635 98.2202 78.107 98.5938 78.107 99.0511C78.107 99.4261 77.999 99.7614 77.7831 100.057C77.57 100.352 77.2718 100.585 76.8882 100.756C76.5047 100.926 76.0587 101.011 75.5502 101.011C74.8825 101.011 74.33 100.866 73.8925 100.577C73.455 100.287 73.178 99.8636 73.0615 99.3068L74.0161 99.0682C74.107 99.4205 74.2789 99.6847 74.5317 99.8608C74.7874 100.037 75.1212 100.125 75.5331 100.125C76.0019 100.125 76.374 100.026 76.6496 99.8267C76.928 99.625 77.0672 99.3835 77.0672 99.1023C77.0672 98.875 76.9877 98.6847 76.8286 98.5313C76.6695 98.375 76.4252 98.2585 76.0956 98.1818L75.0047 97.9261C74.4053 97.7841 73.9649 97.5639 73.6837 97.2656C73.4053 96.9645 73.2661 96.5881 73.2661 96.1364C73.2661 95.767 73.3698 95.4403 73.5771 95.1563C73.7874 94.8722 74.0729 94.6491 74.4337 94.4872C74.7973 94.3253 75.2093 94.2443 75.6695 94.2443C76.3172 94.2443 76.8257 94.3864 77.195 94.6705C77.5672 94.9545 77.8314 95.3295 77.9877 95.7955Z" fill="#0D0D0D"/>
<path d="M79.6208 103.33V94.3295H80.5924V95.3693H80.7117C80.7856 95.2557 80.8879 95.1108 81.0186 94.9347C81.1521 94.7557 81.3424 94.5966 81.5896 94.4574C81.8396 94.3153 82.1776 94.2443 82.6038 94.2443C83.1549 94.2443 83.6407 94.3821 84.0612 94.6577C84.4816 94.9332 84.8097 95.3239 85.0455 95.8295C85.2813 96.3352 85.3992 96.9318 85.3992 97.6193C85.3992 98.3125 85.2813 98.9134 85.0455 99.4219C84.8097 99.9276 84.483 100.32 84.0654 100.598C83.6478 100.874 83.1663 101.011 82.6208 101.011C82.2004 101.011 81.8637 100.942 81.6109 100.803C81.358 100.661 81.1634 100.5 81.0271 100.321C80.8907 100.139 80.7856 99.9886 80.7117 99.8693H80.6265V103.33H79.6208ZM80.6095 97.6023C80.6095 98.0966 80.6819 98.5327 80.8268 98.9105C80.9717 99.2855 81.1833 99.5795 81.4617 99.7926C81.7401 100.003 82.0811 100.108 82.4845 100.108C82.9049 100.108 83.2558 99.9972 83.537 99.7756C83.8211 99.5511 84.0342 99.25 84.1762 98.8722C84.3211 98.4915 84.3936 98.0682 84.3936 97.6023C84.3936 97.142 84.3225 96.7273 84.1805 96.358C84.0413 95.9858 83.8296 95.6918 83.5455 95.4759C83.2643 95.2571 82.9106 95.1477 82.4845 95.1477C82.0754 95.1477 81.7316 95.2514 81.4532 95.4588C81.1748 95.6634 80.9646 95.9503 80.8225 96.3196C80.6805 96.6861 80.6095 97.1136 80.6095 97.6023Z" fill="#0D0D0D"/>
<path d="M89.5924 101.011C89.0015 101.011 88.483 100.871 88.037 100.589C87.5938 100.308 87.2472 99.9148 86.9972 99.4091C86.7501 98.9034 86.6265 98.3125 86.6265 97.6364C86.6265 96.9545 86.7501 96.3594 86.9972 95.8509C87.2472 95.3423 87.5938 94.9474 88.037 94.6662C88.483 94.3849 89.0015 94.2443 89.5924 94.2443C90.1833 94.2443 90.7004 94.3849 91.1436 94.6662C91.5896 94.9474 91.9362 95.3423 92.1833 95.8509C92.4333 96.3594 92.5583 96.9545 92.5583 97.6364C92.5583 98.3125 92.4333 98.9034 92.1833 99.4091C91.9362 99.9148 91.5896 100.308 91.1436 100.589C90.7004 100.871 90.1833 101.011 89.5924 101.011ZM89.5924 100.108C90.0413 100.108 90.4106 99.9929 90.7004 99.7628C90.9901 99.5327 91.2046 99.2301 91.3438 98.8551C91.483 98.4801 91.5526 98.0739 91.5526 97.6364C91.5526 97.1989 91.483 96.7912 91.3438 96.4134C91.2046 96.0355 90.9901 95.7301 90.7004 95.4972C90.4106 95.2642 90.0413 95.1477 89.5924 95.1477C89.1436 95.1477 88.7742 95.2642 88.4845 95.4972C88.1947 95.7301 87.9802 96.0355 87.841 96.4134C87.7018 96.7912 87.6322 97.1989 87.6322 97.6364C87.6322 98.0739 87.7018 98.4801 87.841 98.8551C87.9802 99.2301 88.1947 99.5327 88.4845 99.7628C88.7742 99.9929 89.1436 100.108 89.5924 100.108Z" fill="#0D0D0D"/>
<path d="M96.9401 94.3295V95.1818H93.548V94.3295H96.9401ZM94.5367 92.7614H95.5423V99C95.5423 99.2841 95.5835 99.4972 95.6659 99.6392C95.7512 99.7784 95.8591 99.8722 95.9898 99.9205C96.1233 99.9659 96.2639 99.9886 96.4117 99.9886C96.5225 99.9886 96.6134 99.983 96.6844 99.9716C96.7554 99.9574 96.8122 99.946 96.8548 99.9375L97.0594 100.841C96.9912 100.866 96.896 100.892 96.7739 100.918C96.6517 100.946 96.4969 100.96 96.3094 100.96C96.0253 100.96 95.7469 100.899 95.4742 100.777C95.2043 100.655 94.9798 100.469 94.8009 100.219C94.6247 99.9688 94.5367 99.6534 94.5367 99.2727V92.7614Z" fill="#0D0D0D"/>
<path d="M99.5992 92.1477V100.875H98.5935V92.1477H99.5992Z" fill="#0D0D0D"/>
<path d="M101.441 100.875V94.3295H102.447V100.875H101.441ZM101.952 93.2386C101.756 93.2386 101.587 93.1719 101.445 93.0384C101.306 92.9048 101.237 92.7443 101.237 92.5568C101.237 92.3693 101.306 92.2088 101.445 92.0753C101.587 91.9418 101.756 91.875 101.952 91.875C102.149 91.875 102.316 91.9418 102.455 92.0753C102.597 92.2088 102.668 92.3693 102.668 92.5568C102.668 92.7443 102.597 92.9048 102.455 93.0384C102.316 93.1719 102.149 93.2386 101.952 93.2386Z" fill="#0D0D0D"/>
<path d="M106.931 103.466C106.445 103.466 106.027 103.403 105.678 103.278C105.329 103.156 105.037 102.994 104.804 102.793C104.574 102.594 104.391 102.381 104.255 102.153L105.056 101.591C105.147 101.71 105.262 101.847 105.401 102C105.54 102.156 105.731 102.291 105.972 102.405C106.216 102.521 106.536 102.58 106.931 102.58C107.459 102.58 107.895 102.452 108.239 102.196C108.583 101.94 108.755 101.54 108.755 100.994V99.6648H108.669C108.596 99.7841 108.49 99.9318 108.354 100.108C108.221 100.281 108.027 100.436 107.775 100.572C107.525 100.706 107.187 100.773 106.76 100.773C106.232 100.773 105.758 100.648 105.337 100.398C104.919 100.148 104.589 99.7841 104.344 99.3068C104.103 98.8295 103.982 98.25 103.982 97.5682C103.982 96.8977 104.1 96.3139 104.336 95.8168C104.571 95.3168 104.9 94.9304 105.32 94.6577C105.74 94.3821 106.226 94.2443 106.777 94.2443C107.204 94.2443 107.542 94.3153 107.792 94.4574C108.044 94.5966 108.238 94.7557 108.371 94.9347C108.508 95.1108 108.613 95.2557 108.687 95.3693H108.789V94.3295H109.76V101.063C109.76 101.625 109.633 102.082 109.377 102.435C109.124 102.79 108.783 103.05 108.354 103.214C107.928 103.382 107.454 103.466 106.931 103.466ZM106.897 99.8693C107.3 99.8693 107.641 99.777 107.919 99.5923C108.198 99.4077 108.41 99.142 108.554 98.7955C108.699 98.4489 108.772 98.0341 108.772 97.5511C108.772 97.0795 108.701 96.6634 108.559 96.3026C108.417 95.9418 108.206 95.6591 107.928 95.4545C107.65 95.25 107.306 95.1477 106.897 95.1477C106.471 95.1477 106.115 95.2557 105.831 95.4716C105.55 95.6875 105.339 95.9773 105.196 96.3409C105.057 96.7045 104.988 97.108 104.988 97.5511C104.988 98.0057 105.059 98.4077 105.201 98.7571C105.346 99.1037 105.559 99.3764 105.84 99.5753C106.124 99.7713 106.476 99.8693 106.897 99.8693Z" fill="#0D0D0D"/>
<path d="M112.607 96.9375V100.875H111.601V92.1477H112.607V95.3523H112.692C112.846 95.0142 113.076 94.7457 113.383 94.5469C113.692 94.3452 114.104 94.2443 114.618 94.2443C115.064 94.2443 115.455 94.3338 115.79 94.5128C116.125 94.6889 116.385 94.9602 116.57 95.3267C116.758 95.6903 116.851 96.1534 116.851 96.7159V100.875H115.846V96.7841C115.846 96.2642 115.711 95.8622 115.441 95.5781C115.174 95.2912 114.803 95.1477 114.329 95.1477C113.999 95.1477 113.704 95.2173 113.442 95.3565C113.184 95.4957 112.979 95.6989 112.829 95.9659C112.681 96.233 112.607 96.5568 112.607 96.9375Z" fill="#0D0D0D"/>
<path d="M121.538 94.3295V95.1818H118.146V94.3295H121.538ZM119.134 92.7614H120.14V99C120.14 99.2841 120.181 99.4972 120.264 99.6392C120.349 99.7784 120.457 99.8722 120.587 99.9205C120.721 99.9659 120.862 99.9886 121.009 99.9886C121.12 99.9886 121.211 99.983 121.282 99.9716C121.353 99.9574 121.41 99.946 121.452 99.9375L121.657 100.841C121.589 100.866 121.494 100.892 121.372 100.918C121.249 100.946 121.095 100.96 120.907 100.96C120.623 100.96 120.345 100.899 120.072 100.777C119.802 100.655 119.577 100.469 119.399 100.219C119.222 99.9688 119.134 99.6534 119.134 99.2727V92.7614Z" fill="#0D0D0D"/>
<path d="M32.7173 109.727H34.3295L36.4886 114.997H36.5739L38.733 109.727H40.3452V117H39.081V112.004H39.0135L37.0036 116.979H36.0589L34.049 111.993H33.9815V117H32.7173V109.727ZM42.7138 117H41.3075L43.8679 109.727H45.4943L48.0582 117H46.652L44.7095 111.219H44.6527L42.7138 117ZM42.7599 114.148H46.5952V115.207H42.7599V114.148ZM49.0162 117V109.727H51.7434C52.3021 109.727 52.7709 109.824 53.1497 110.018C53.5308 110.213 53.8185 110.485 54.0126 110.835C54.2091 111.183 54.3074 111.589 54.3074 112.053C54.3074 112.52 54.2079 112.924 54.0091 113.268C53.8126 113.609 53.5225 113.873 53.139 114.06C52.7555 114.244 52.2844 114.337 51.7257 114.337H49.7832V113.243H51.5481C51.8748 113.243 52.1423 113.198 52.3507 113.108C52.559 113.016 52.7129 112.882 52.8123 112.707C52.9141 112.529 52.965 112.311 52.965 112.053C52.965 111.795 52.9141 111.575 52.8123 111.393C52.7105 111.208 52.5555 111.068 52.3471 110.974C52.1388 110.877 51.8701 110.828 51.541 110.828H50.3336V117H49.0162ZM52.7733 113.705L54.5737 117H53.1035L51.335 113.705H52.7733ZM61.7452 112.181H60.4171C60.3792 111.963 60.3094 111.77 60.2076 111.602C60.1058 111.432 59.9791 111.287 59.8276 111.169C59.6761 111.051 59.5033 110.962 59.3091 110.903C59.1174 110.841 58.9102 110.81 58.6877 110.81C58.2923 110.81 57.9419 110.91 57.6365 111.109C57.3311 111.305 57.092 111.594 56.9192 111.975C56.7464 112.354 56.66 112.817 56.66 113.364C56.66 113.92 56.7464 114.389 56.9192 114.77C57.0944 115.149 57.3335 115.435 57.6365 115.629C57.9419 115.821 58.2911 115.917 58.6841 115.917C58.9019 115.917 59.1055 115.888 59.2949 115.832C59.4867 115.772 59.6583 115.686 59.8098 115.572C59.9637 115.459 60.0927 115.319 60.1969 115.153C60.3034 114.988 60.3768 114.798 60.4171 114.585L61.7452 114.592C61.6955 114.938 61.5878 115.262 61.4221 115.565C61.2587 115.868 61.0444 116.136 60.7793 116.368C60.5141 116.598 60.204 116.777 59.8489 116.908C59.4938 117.036 59.0996 117.099 58.6664 117.099C58.0272 117.099 57.4566 116.951 56.9547 116.656C56.4528 116.36 56.0575 115.932 55.7686 115.374C55.4798 114.815 55.3354 114.145 55.3354 113.364C55.3354 112.58 55.481 111.91 55.7722 111.354C56.0634 110.795 56.4599 110.368 56.9618 110.072C57.4637 109.776 58.0319 109.628 58.6664 109.628C59.0712 109.628 59.4476 109.685 59.7956 109.798C60.1436 109.912 60.4538 110.079 60.726 110.299C60.9983 110.517 61.222 110.784 61.3972 111.102C61.5748 111.416 61.6908 111.776 61.7452 112.181ZM62.9517 117V109.727H64.2692V112.806H67.6392V109.727H68.9602V117H67.6392V113.911H64.2692V117H62.9517ZM72.8026 117V116.048L75.3274 113.573C75.5689 113.329 75.7701 113.113 75.9311 112.923C76.0921 112.734 76.2128 112.55 76.2933 112.373C76.3738 112.195 76.4141 112.006 76.4141 111.805C76.4141 111.575 76.362 111.379 76.2578 111.215C76.1536 111.049 76.0104 110.922 75.8281 110.832C75.6458 110.742 75.4387 110.697 75.2067 110.697C74.9676 110.697 74.758 110.746 74.5781 110.846C74.3982 110.943 74.2585 111.081 74.1591 111.261C74.062 111.441 74.0135 111.656 74.0135 111.904H72.7599C72.7599 111.442 72.8653 111.041 73.076 110.7C73.2867 110.359 73.5767 110.095 73.946 109.908C74.3177 109.721 74.7438 109.628 75.2244 109.628C75.7121 109.628 76.1406 109.719 76.5099 109.901C76.8793 110.084 77.1657 110.333 77.3693 110.651C77.5753 110.968 77.6783 111.33 77.6783 111.737C77.6783 112.009 77.6262 112.277 77.522 112.54C77.4179 112.803 77.2344 113.094 76.9716 113.413C76.7112 113.733 76.3454 114.12 75.8743 114.575L74.6207 115.849V115.899H77.7884V117H72.8026ZM81.7017 117.138C81.117 117.138 80.6151 116.991 80.196 116.695C79.7794 116.396 79.4586 115.967 79.2337 115.406C79.0111 114.842 78.8999 114.164 78.8999 113.371C78.9022 112.578 79.0147 111.903 79.2372 111.347C79.4621 110.788 79.7829 110.362 80.1996 110.068C80.6186 109.775 81.1193 109.628 81.7017 109.628C82.2841 109.628 82.7848 109.775 83.2038 110.068C83.6229 110.362 83.9437 110.788 84.1662 111.347C84.3911 111.905 84.5036 112.58 84.5036 113.371C84.5036 114.166 84.3911 114.846 84.1662 115.409C83.9437 115.97 83.6229 116.399 83.2038 116.695C82.7872 116.991 82.2865 117.138 81.7017 117.138ZM81.7017 116.027C82.1563 116.027 82.5149 115.803 82.7777 115.356C83.0429 114.906 83.1754 114.244 83.1754 113.371C83.1754 112.793 83.1151 112.308 82.9943 111.915C82.8736 111.522 82.7031 111.226 82.483 111.027C82.2628 110.826 82.0024 110.725 81.7017 110.725C81.2495 110.725 80.892 110.95 80.6293 111.4C80.3665 111.847 80.2339 112.504 80.2315 113.371C80.2292 113.951 80.2872 114.438 80.4055 114.834C80.5263 115.229 80.6967 115.527 80.9169 115.729C81.1371 115.928 81.3987 116.027 81.7017 116.027ZM85.6834 117V116.048L88.2083 113.573C88.4498 113.329 88.651 113.113 88.812 112.923C88.973 112.734 89.0937 112.55 89.1742 112.373C89.2547 112.195 89.2949 112.006 89.2949 111.805C89.2949 111.575 89.2428 111.379 89.1387 111.215C89.0345 111.049 88.8913 110.922 88.709 110.832C88.5267 110.742 88.3195 110.697 88.0875 110.697C87.8484 110.697 87.6389 110.746 87.459 110.846C87.2791 110.943 87.1394 111.081 87.04 111.261C86.9429 111.441 86.8944 111.656 86.8944 111.904H85.6408C85.6408 111.442 85.7462 111.041 85.9569 110.7C86.1676 110.359 86.4576 110.095 86.8269 109.908C87.1986 109.721 87.6247 109.628 88.1053 109.628C88.593 109.628 89.0215 109.719 89.3908 109.901C89.7601 110.084 90.0466 110.333 90.2502 110.651C90.4561 110.968 90.5591 111.33 90.5591 111.737C90.5591 112.009 90.507 112.277 90.4029 112.54C90.2987 112.803 90.1152 113.094 89.8525 113.413C89.592 113.733 89.2263 114.12 88.7551 114.575L87.5016 115.849V115.899H90.6692V117H85.6834ZM91.6067 115.651V114.603L94.3873 109.727H95.6621L92.9455 114.511V114.567H97.2637V115.651H91.6067ZM95.0762 117V115.342L95.1046 114.862V112.455H96.3155V117H95.0762Z" fill="#6A737D"/>
<defs>
<filter id="filter0_d_16959_58962" x="23" y="0" width="84" height="98" filterUnits="userSpaceOnUse" color-interpolation-filters="sRGB">
<feFlood flood-opacity="0" result="BackgroundImageFix"/>
<feColorMatrix in="SourceAlpha" type="matrix" values="0 0 0 0 0 0 0 0 0 0 0 0 0 0 0 0 0 0 127 0" result="hardAlpha"/>
<feOffset dy="4"/>
<feGaussianBlur stdDeviation="8"/>
<feComposite in2="hardAlpha" operator="out"/>
<feColorMatrix type="matrix" values="0 0 0 0 0 0 0 0 0 0 0 0 0 0 0 0 0 0 0.05 0"/>
<feBlend mode="normal" in2="BackgroundImageFix" result="effect1_dropShadow_16959_58962"/>
<feBlend mode="normal" in="SourceGraphic" in2="effect1_dropShadow_16959_58962" result="shape"/>
</filter>
<filter id="filter1_ii_16959_58962" x="38" y="12.875" width="54" height="56" filterUnits="userSpaceOnUse" color-interpolation-filters="sRGB">
<feFlood flood-opacity="0" result="BackgroundImageFix"/>
<feBlend mode="normal" in="SourceGraphic" in2="BackgroundImageFix" result="shape"/>
<feColorMatrix in="SourceAlpha" type="matrix" values="0 0 0 0 0 0 0 0 0 0 0 0 0 0 0 0 0 0 127 0" result="hardAlpha"/>
<feOffset dx="2" dy="-3"/>
<feGaussianBlur stdDeviation="2"/>
<feComposite in2="hardAlpha" operator="arithmetic" k2="-1" k3="1"/>
<feColorMatrix type="matrix" values="0 0 0 0 1 0 0 0 0 1 0 0 0 0 1 0 0 0 0.55 0"/>
<feBlend mode="normal" in2="shape" result="effect1_innerShadow_16959_58962"/>
<feColorMatrix in="SourceAlpha" type="matrix" values="0 0 0 0 0 0 0 0 0 0 0 0 0 0 0 0 0 0 127 0" result="hardAlpha"/>
<feOffset dx="-2" dy="3"/>
<feGaussianBlur stdDeviation="2"/>
<feComposite in2="hardAlpha" operator="arithmetic" k2="-1" k3="1"/>
<feColorMatrix type="matrix" values="0 0 0 0 1 0 0 0 0 1 0 0 0 0 1 0 0 0 0.55 0"/>
<feBlend mode="normal" in2="effect1_innerShadow_16959_58962" result="effect2_innerShadow_16959_58962"/>
</filter>
<filter id="filter2_i_16959_58962" x="52.373" y="56.3262" width="26.2334" height="7.87695" filterUnits="userSpaceOnUse" color-interpolation-filters="sRGB">
<feFlood flood-opacity="0" result="BackgroundImageFix"/>
<feBlend mode="normal" in="SourceGraphic" in2="BackgroundImageFix" result="shape"/>
<feColorMatrix in="SourceAlpha" type="matrix" values="0 0 0 0 0 0 0 0 0 0 0 0 0 0 0 0 0 0 127 0" result="hardAlpha"/>
<feOffset dx="0.5" dy="0.5"/>
<feGaussianBlur stdDeviation="0.5"/>
<feComposite in2="hardAlpha" operator="arithmetic" k2="-1" k3="1"/>
<feColorMatrix type="matrix" values="0 0 0 0 0 0 0 0 0 0 0 0 0 0 0 0 0 0 0.2 0"/>
<feBlend mode="normal" in2="shape" result="effect1_innerShadow_16959_58962"/>
</filter>
<filter id="filter3_i_16959_58962" x="39.375" y="15.25" width="51.75" height="51.75" filterUnits="userSpaceOnUse" color-interpolation-filters="sRGB">
<feFlood flood-opacity="0" result="BackgroundImageFix"/>
<feBlend mode="normal" in="SourceGraphic" in2="BackgroundImageFix" result="shape"/>
<feColorMatrix in="SourceAlpha" type="matrix" values="0 0 0 0 0 0 0 0 0 0 0 0 0 0 0 0 0 0 127 0" result="hardAlpha"/>
<feOffset dx="0.5" dy="0.5"/>
<feGaussianBlur stdDeviation="0.5"/>
<feComposite in2="hardAlpha" operator="arithmetic" k2="-1" k3="1"/>
<feColorMatrix type="matrix" values="0 0 0 0 0 0 0 0 0 0 0 0 0 0 0 0 0 0 0.2 0"/>
<feBlend mode="normal" in2="shape" result="effect1_innerShadow_16959_58962"/>
</filter>
<filter id="filter4_i_16959_58962" x="48.125" y="24" width="34.25" height="34.25" filterUnits="userSpaceOnUse" color-interpolation-filters="sRGB">
<feFlood flood-opacity="0" result="BackgroundImageFix"/>
<feBlend mode="normal" in="SourceGraphic" in2="BackgroundImageFix" result="shape"/>
<feColorMatrix in="SourceAlpha" type="matrix" values="0 0 0 0 0 0 0 0 0 0 0 0 0 0 0 0 0 0 127 0" result="hardAlpha"/>
<feOffset dx="0.5" dy="0.5"/>
<feGaussianBlur stdDeviation="0.5"/>
<feComposite in2="hardAlpha" operator="arithmetic" k2="-1" k3="1"/>
<feColorMatrix type="matrix" values="0 0 0 0 0 0 0 0 0 0 0 0 0 0 0 0 0 0 0.2 0"/>
<feBlend mode="normal" in2="shape" result="effect1_innerShadow_16959_58962"/>
</filter>
<filter id="filter5_i_16959_58962" x="44.0811" y="47.6055" width="5.23145" height="3.9541" filterUnits="userSpaceOnUse" color-interpolation-filters="sRGB">
<feFlood flood-opacity="0" result="BackgroundImageFix"/>
<feBlend mode="normal" in="SourceGraphic" in2="BackgroundImageFix" result="shape"/>
<feColorMatrix in="SourceAlpha" type="matrix" values="0 0 0 0 0 0 0 0 0 0 0 0 0 0 0 0 0 0 127 0" result="hardAlpha"/>
<feOffset dx="0.5" dy="0.5"/>
<feGaussianBlur stdDeviation="0.5"/>
<feComposite in2="hardAlpha" operator="arithmetic" k2="-1" k3="1"/>
<feColorMatrix type="matrix" values="0 0 0 0 0 0 0 0 0 0 0 0 0 0 0 0 0 0 0.2 0"/>
<feBlend mode="normal" in2="shape" result="effect1_innerShadow_16959_58962"/>
</filter>
<filter id="filter6_i_16959_58962" x="42.7588" y="42.7764" width="5.0791" height="4.26074" filterUnits="userSpaceOnUse" color-interpolation-filters="sRGB">
<feFlood flood-opacity="0" result="BackgroundImageFix"/>
<feBlend mode="normal" in="SourceGraphic" in2="BackgroundImageFix" result="shape"/>
<feColorMatrix in="SourceAlpha" type="matrix" values="0 0 0 0 0 0 0 0 0 0 0 0 0 0 0 0 0 0 127 0" result="hardAlpha"/>
<feOffset dx="0.5" dy="0.5"/>
<feGaussianBlur stdDeviation="0.5"/>
<feComposite in2="hardAlpha" operator="arithmetic" k2="-1" k3="1"/>
<feColorMatrix type="matrix" values="0 0 0 0 0 0 0 0 0 0 0 0 0 0 0 0 0 0 0.2 0"/>
<feBlend mode="normal" in2="shape" result="effect1_innerShadow_16959_58962"/>
</filter>
<filter id="filter7_i_16959_58962" x="42.3447" y="38.2588" width="4.94043" height="3.96484" filterUnits="userSpaceOnUse" color-interpolation-filters="sRGB">
<feFlood flood-opacity="0" result="BackgroundImageFix"/>
<feBlend mode="normal" in="SourceGraphic" in2="BackgroundImageFix" result="shape"/>
<feColorMatrix in="SourceAlpha" type="matrix" values="0 0 0 0 0 0 0 0 0 0 0 0 0 0 0 0 0 0 127 0" result="hardAlpha"/>
<feOffset dx="0.5" dy="0.5"/>
<feGaussianBlur stdDeviation="0.5"/>
<feComposite in2="hardAlpha" operator="arithmetic" k2="-1" k3="1"/>
<feColorMatrix type="matrix" values="0 0 0 0 0 0 0 0 0 0 0 0 0 0 0 0 0 0 0.2 0"/>
<feBlend mode="normal" in2="shape" result="effect1_innerShadow_16959_58962"/>
</filter>
<filter id="filter8_i_16959_58962" x="43.084" y="33.3721" width="4.79395" height="4.40723" filterUnits="userSpaceOnUse" color-interpolation-filters="sRGB">
<feFlood flood-opacity="0" result="BackgroundImageFix"/>
<feBlend mode="normal" in="SourceGraphic" in2="BackgroundImageFix" result="shape"/>
<feColorMatrix in="SourceAlpha" type="matrix" values="0 0 0 0 0 0 0 0 0 0 0 0 0 0 0 0 0 0 127 0" result="hardAlpha"/>
<feOffset dx="0.5" dy="0.5"/>
<feGaussianBlur stdDeviation="0.5"/>
<feComposite in2="hardAlpha" operator="arithmetic" k2="-1" k3="1"/>
<feColorMatrix type="matrix" values="0 0 0 0 0 0 0 0 0 0 0 0 0 0 0 0 0 0 0.2 0"/>
<feBlend mode="normal" in2="shape" result="effect1_innerShadow_16959_58962"/>
</filter>
<filter id="filter9_i_16959_58962" x="44.248" y="29.252" width="5.54004" height="4.81543" filterUnits="userSpaceOnUse" color-interpolation-filters="sRGB">
<feFlood flood-opacity="0" result="BackgroundImageFix"/>
<feBlend mode="normal" in="SourceGraphic" in2="BackgroundImageFix" result="shape"/>
<feColorMatrix in="SourceAlpha" type="matrix" values="0 0 0 0 0 0 0 0 0 0 0 0 0 0 0 0 0 0 127 0" result="hardAlpha"/>
<feOffset dx="0.5" dy="0.5"/>
<feGaussianBlur stdDeviation="0.5"/>
<feComposite in2="hardAlpha" operator="arithmetic" k2="-1" k3="1"/>
<feColorMatrix type="matrix" values="0 0 0 0 0 0 0 0 0 0 0 0 0 0 0 0 0 0 0.2 0"/>
<feBlend mode="normal" in2="shape" result="effect1_innerShadow_16959_58962"/>
</filter>
<filter id="filter10_i_16959_58962" x="46.9551" y="25.7119" width="4.81641" height="4.64062" filterUnits="userSpaceOnUse" color-interpolation-filters="sRGB">
<feFlood flood-opacity="0" result="BackgroundImageFix"/>
<feBlend mode="normal" in="SourceGraphic" in2="BackgroundImageFix" result="shape"/>
<feColorMatrix in="SourceAlpha" type="matrix" values="0 0 0 0 0 0 0 0 0 0 0 0 0 0 0 0 0 0 127 0" result="hardAlpha"/>
<feOffset dx="0.5" dy="0.5"/>
<feGaussianBlur stdDeviation="0.5"/>
<feComposite in2="hardAlpha" operator="arithmetic" k2="-1" k3="1"/>
<feColorMatrix type="matrix" values="0 0 0 0 0 0 0 0 0 0 0 0 0 0 0 0 0 0 0.2 0"/>
<feBlend mode="normal" in2="shape" result="effect1_innerShadow_16959_58962"/>
</filter>
<filter id="filter11_i_16959_58962" x="49.5439" y="22.0547" width="4.71777" height="5.05859" filterUnits="userSpaceOnUse" color-interpolation-filters="sRGB">
<feFlood flood-opacity="0" result="BackgroundImageFix"/>
<feBlend mode="normal" in="SourceGraphic" in2="BackgroundImageFix" result="shape"/>
<feColorMatrix in="SourceAlpha" type="matrix" values="0 0 0 0 0 0 0 0 0 0 0 0 0 0 0 0 0 0 127 0" result="hardAlpha"/>
<feOffset dx="0.5" dy="0.5"/>
<feGaussianBlur stdDeviation="0.5"/>
<feComposite in2="hardAlpha" operator="arithmetic" k2="-1" k3="1"/>
<feColorMatrix type="matrix" values="0 0 0 0 0 0 0 0 0 0 0 0 0 0 0 0 0 0 0.2 0"/>
<feBlend mode="normal" in2="shape" result="effect1_innerShadow_16959_58962"/>
</filter>
<filter id="filter12_i_16959_58962" x="55.8525" y="19.3066" width="4.36035" height="4.94629" filterUnits="userSpaceOnUse" color-interpolation-filters="sRGB">
<feFlood flood-opacity="0" result="BackgroundImageFix"/>
<feBlend mode="normal" in="SourceGraphic" in2="BackgroundImageFix" result="shape"/>
<feColorMatrix in="SourceAlpha" type="matrix" values="0 0 0 0 0 0 0 0 0 0 0 0 0 0 0 0 0 0 127 0" result="hardAlpha"/>
<feOffset dx="0.5" dy="0.5"/>
<feGaussianBlur stdDeviation="0.5"/>
<feComposite in2="hardAlpha" operator="arithmetic" k2="-1" k3="1"/>
<feColorMatrix type="matrix" values="0 0 0 0 0 0 0 0 0 0 0 0 0 0 0 0 0 0 0.2 0"/>
<feBlend mode="normal" in2="shape" result="effect1_innerShadow_16959_58962"/>
</filter>
<filter id="filter13_i_16959_58962" x="60.5508" y="18.1172" width="3.29785" height="5.10156" filterUnits="userSpaceOnUse" color-interpolation-filters="sRGB">
<feFlood flood-opacity="0" result="BackgroundImageFix"/>
<feBlend mode="normal" in="SourceGraphic" in2="BackgroundImageFix" result="shape"/>
<feColorMatrix in="SourceAlpha" type="matrix" values="0 0 0 0 0 0 0 0 0 0 0 0 0 0 0 0 0 0 127 0" result="hardAlpha"/>
<feOffset dx="0.5" dy="0.5"/>
<feGaussianBlur stdDeviation="0.5"/>
<feComposite in2="hardAlpha" operator="arithmetic" k2="-1" k3="1"/>
<feColorMatrix type="matrix" values="0 0 0 0 0 0 0 0 0 0 0 0 0 0 0 0 0 0 0.2 0"/>
<feBlend mode="normal" in2="shape" result="effect1_innerShadow_16959_58962"/>
</filter>
<filter id="filter14_i_16959_58962" x="66.6885" y="18.1113" width="3.83398" height="5.00977" filterUnits="userSpaceOnUse" color-interpolation-filters="sRGB">
<feFlood flood-opacity="0" result="BackgroundImageFix"/>
<feBlend mode="normal" in="SourceGraphic" in2="BackgroundImageFix" result="shape"/>
<feColorMatrix in="SourceAlpha" type="matrix" values="0 0 0 0 0 0 0 0 0 0 0 0 0 0 0 0 0 0 127 0" result="hardAlpha"/>
<feOffset dx="0.5" dy="0.5"/>
<feGaussianBlur stdDeviation="0.5"/>
<feComposite in2="hardAlpha" operator="arithmetic" k2="-1" k3="1"/>
<feColorMatrix type="matrix" values="0 0 0 0 0 0 0 0 0 0 0 0 0 0 0 0 0 0 0.2 0"/>
<feBlend mode="normal" in2="shape" result="effect1_innerShadow_16959_58962"/>
</filter>
<filter id="filter15_i_16959_58962" x="70.1992" y="19.0742" width="4.94922" height="5.60156" filterUnits="userSpaceOnUse" color-interpolation-filters="sRGB">
<feFlood flood-opacity="0" result="BackgroundImageFix"/>
<feBlend mode="normal" in="SourceGraphic" in2="BackgroundImageFix" result="shape"/>
<feColorMatrix in="SourceAlpha" type="matrix" values="0 0 0 0 0 0 0 0 0 0 0 0 0 0 0 0 0 0 127 0" result="hardAlpha"/>
<feOffset dx="0.5" dy="0.5"/>
<feGaussianBlur stdDeviation="0.5"/>
<feComposite in2="hardAlpha" operator="arithmetic" k2="-1" k3="1"/>
<feColorMatrix type="matrix" values="0 0 0 0 0 0 0 0 0 0 0 0 0 0 0 0 0 0 0.2 0"/>
<feBlend mode="normal" in2="shape" result="effect1_innerShadow_16959_58962"/>
</filter>
<filter id="filter16_i_16959_58962" x="74.0752" y="21.2012" width="5.12012" height="5.55273" filterUnits="userSpaceOnUse" color-interpolation-filters="sRGB">
<feFlood flood-opacity="0" result="BackgroundImageFix"/>
<feBlend mode="normal" in="SourceGraphic" in2="BackgroundImageFix" result="shape"/>
<feColorMatrix in="SourceAlpha" type="matrix" values="0 0 0 0 0 0 0 0 0 0 0 0 0 0 0 0 0 0 127 0" result="hardAlpha"/>
<feOffset dx="0.5" dy="0.5"/>
<feGaussianBlur stdDeviation="0.5"/>
<feComposite in2="hardAlpha" operator="arithmetic" k2="-1" k3="1"/>
<feColorMatrix type="matrix" values="0 0 0 0 0 0 0 0 0 0 0 0 0 0 0 0 0 0 0.2 0"/>
<feBlend mode="normal" in2="shape" result="effect1_innerShadow_16959_58962"/>
</filter>
<filter id="filter17_i_16959_58962" x="78.4756" y="25.626" width="6.55762" height="6.58887" filterUnits="userSpaceOnUse" color-interpolation-filters="sRGB">
<feFlood flood-opacity="0" result="BackgroundImageFix"/>
<feBlend mode="normal" in="SourceGraphic" in2="BackgroundImageFix" result="shape"/>
<feColorMatrix in="SourceAlpha" type="matrix" values="0 0 0 0 0 0 0 0 0 0 0 0 0 0 0 0 0 0 127 0" result="hardAlpha"/>
<feOffset dx="0.5" dy="0.5"/>
<feGaussianBlur stdDeviation="0.5"/>
<feComposite in2="hardAlpha" operator="arithmetic" k2="-1" k3="1"/>
<feColorMatrix type="matrix" values="0 0 0 0 0 0 0 0 0 0 0 0 0 0 0 0 0 0 0.2 0"/>
<feBlend mode="normal" in2="shape" result="effect1_innerShadow_16959_58962"/>
</filter>
<filter id="filter18_i_16959_58962" x="81.874" y="31.5645" width="4.9502" height="4.36523" filterUnits="userSpaceOnUse" color-interpolation-filters="sRGB">
<feFlood flood-opacity="0" result="BackgroundImageFix"/>
<feBlend mode="normal" in="SourceGraphic" in2="BackgroundImageFix" result="shape"/>
<feColorMatrix in="SourceAlpha" type="matrix" values="0 0 0 0 0 0 0 0 0 0 0 0 0 0 0 0 0 0 127 0" result="hardAlpha"/>
<feOffset dx="0.5" dy="0.5"/>
<feGaussianBlur stdDeviation="0.5"/>
<feComposite in2="hardAlpha" operator="arithmetic" k2="-1" k3="1"/>
<feColorMatrix type="matrix" values="0 0 0 0 0 0 0 0 0 0 0 0 0 0 0 0 0 0 0.2 0"/>
<feBlend mode="normal" in2="shape" result="effect1_innerShadow_16959_58962"/>
</filter>
<filter id="filter19_i_16959_58962" x="82.9238" y="36.3281" width="5.12012" height="4.15723" filterUnits="userSpaceOnUse" color-interpolation-filters="sRGB">
<feFlood flood-opacity="0" result="BackgroundImageFix"/>
<feBlend mode="normal" in="SourceGraphic" in2="BackgroundImageFix" result="shape"/>
<feColorMatrix in="SourceAlpha" type="matrix" values="0 0 0 0 0 0 0 0 0 0 0 0 0 0 0 0 0 0 127 0" result="hardAlpha"/>
<feOffset dx="0.5" dy="0.5"/>
<feGaussianBlur stdDeviation="0.5"/>
<feComposite in2="hardAlpha" operator="arithmetic" k2="-1" k3="1"/>
<feColorMatrix type="matrix" values="0 0 0 0 0 0 0 0 0 0 0 0 0 0 0 0 0 0 0.2 0"/>
<feBlend mode="normal" in2="shape" result="effect1_innerShadow_16959_58962"/>
</filter>
<filter id="filter20_i_16959_58962" x="83.1377" y="41.1973" width="4.93652" height="3.82129" filterUnits="userSpaceOnUse" color-interpolation-filters="sRGB">
<feFlood flood-opacity="0" result="BackgroundImageFix"/>
<feBlend mode="normal" in="SourceGraphic" in2="BackgroundImageFix" result="shape"/>
<feColorMatrix in="SourceAlpha" type="matrix" values="0 0 0 0 0 0 0 0 0 0 0 0 0 0 0 0 0 0 127 0" result="hardAlpha"/>
<feOffset dx="0.5" dy="0.5"/>
<feGaussianBlur stdDeviation="0.5"/>
<feComposite in2="hardAlpha" operator="arithmetic" k2="-1" k3="1"/>
<feColorMatrix type="matrix" values="0 0 0 0 0 0 0 0 0 0 0 0 0 0 0 0 0 0 0.2 0"/>
<feBlend mode="normal" in2="shape" result="effect1_innerShadow_16959_58962"/>
</filter>
<filter id="filter21_i_16959_58962" x="81.8389" y="44.9277" width="5.52148" height="4.79688" filterUnits="userSpaceOnUse" color-interpolation-filters="sRGB">
<feFlood flood-opacity="0" result="BackgroundImageFix"/>
<feBlend mode="normal" in="SourceGraphic" in2="BackgroundImageFix" result="shape"/>
<feColorMatrix in="SourceAlpha" type="matrix" values="0 0 0 0 0 0 0 0 0 0 0 0 0 0 0 0 0 0 127 0" result="hardAlpha"/>
<feOffset dx="0.5" dy="0.5"/>
<feGaussianBlur stdDeviation="0.5"/>
<feComposite in2="hardAlpha" operator="arithmetic" k2="-1" k3="1"/>
<feColorMatrix type="matrix" values="0 0 0 0 0 0 0 0 0 0 0 0 0 0 0 0 0 0 0.2 0"/>
<feBlend mode="normal" in2="shape" result="effect1_innerShadow_16959_58962"/>
</filter>
<filter id="filter22_i_16959_58962" x="53.3203" y="33.5645" width="23.4561" height="14.7803" filterUnits="userSpaceOnUse" color-interpolation-filters="sRGB">
<feFlood flood-opacity="0" result="BackgroundImageFix"/>
<feBlend mode="normal" in="SourceGraphic" in2="BackgroundImageFix" result="shape"/>
<feColorMatrix in="SourceAlpha" type="matrix" values="0 0 0 0 0 0 0 0 0 0 0 0 0 0 0 0 0 0 127 0" result="hardAlpha"/>
<feOffset dx="0.5" dy="0.5"/>
<feGaussianBlur stdDeviation="0.5"/>
<feComposite in2="hardAlpha" operator="arithmetic" k2="-1" k3="1"/>
<feColorMatrix type="matrix" values="0 0 0 0 0 0 0 0 0 0 0 0 0 0 0 0 0 0 0.2 0"/>
<feBlend mode="normal" in2="shape" result="effect1_innerShadow_16959_58962"/>
</filter>
<filter id="filter23_i_16959_58962" x="46.8008" y="51.7178" width="4.44043" height="4.44043" filterUnits="userSpaceOnUse" color-interpolation-filters="sRGB">
<feFlood flood-opacity="0" result="BackgroundImageFix"/>
<feBlend mode="normal" in="SourceGraphic" in2="BackgroundImageFix" result="shape"/>
<feColorMatrix in="SourceAlpha" type="matrix" values="0 0 0 0 0 0 0 0 0 0 0 0 0 0 0 0 0 0 127 0" result="hardAlpha"/>
<feOffset dx="0.5" dy="0.5"/>
<feGaussianBlur stdDeviation="0.5"/>
<feComposite in2="hardAlpha" operator="arithmetic" k2="-1" k3="1"/>
<feColorMatrix type="matrix" values="0 0 0 0 0 0 0 0 0 0 0 0 0 0 0 0 0 0 0.2 0"/>
<feBlend mode="normal" in2="shape" result="effect1_innerShadow_16959_58962"/>
</filter>
<filter id="filter24_i_16959_58962" x="80.2529" y="50.8438" width="4.44043" height="4.43945" filterUnits="userSpaceOnUse" color-interpolation-filters="sRGB">
<feFlood flood-opacity="0" result="BackgroundImageFix"/>
<feBlend mode="normal" in="SourceGraphic" in2="BackgroundImageFix" result="shape"/>
<feColorMatrix in="SourceAlpha" type="matrix" values="0 0 0 0 0 0 0 0 0 0 0 0 0 0 0 0 0 0 127 0" result="hardAlpha"/>
<feOffset dx="0.5" dy="0.5"/>
<feGaussianBlur stdDeviation="0.5"/>
<feComposite in2="hardAlpha" operator="arithmetic" k2="-1" k3="1"/>
<feColorMatrix type="matrix" values="0 0 0 0 0 0 0 0 0 0 0 0 0 0 0 0 0 0 0.2 0"/>
<feBlend mode="normal" in2="shape" result="effect1_innerShadow_16959_58962"/>
</filter>
<filter id="filter25_f_16959_58962" x="45.8125" y="22.0488" width="38.3789" height="37.834" filterUnits="userSpaceOnUse" color-interpolation-filters="sRGB">
<feFlood flood-opacity="0" result="BackgroundImageFix"/>
<feBlend mode="normal" in="SourceGraphic" in2="BackgroundImageFix" result="shape"/>
<feGaussianBlur stdDeviation="1" result="effect1_foregroundBlur_16959_58962"/>
</filter>
<linearGradient id="paint0_linear_16959_58962" x1="40" y1="17.7541" x2="47.1813" y2="79.8378" gradientUnits="userSpaceOnUse">
<stop stop-color="#FEDE6D"/>
<stop offset="0.0001" stop-color="#B9BEC1"/>
<stop offset="0.330437" stop-color="#E9EAEC"/>
<stop offset="0.642351" stop-color="#E4E5E7"/>
<stop offset="0.846429" stop-color="white"/>
</linearGradient>
</defs>
</svg>
